<svg width="59" height="59" viewBox="0 0 59 59" fill="none" xmlns="http://www.w3.org/2000/svg">
<rect width="59" height="59" rx="7.11111" fill="#F2C200" fill-opacity="0.08"/>
<g clip-path="url(#clip0_184_14134)">
<path d="M38.6587 15.3867C36.8504 13.7712 34.6358 12.6794 32.2532 12.2288C29.8707 11.7782 27.4103 11.9859 25.137 12.8295C22.8637 13.673 20.8634 15.1206 19.3515 17.0163C17.8395 18.912 16.8732 21.1842 16.5565 23.5882C16.272 25.6961 16.4995 27.8415 17.2197 29.8429C17.94 31.8443 19.1318 33.6427 20.6942 35.086C21.6605 35.9333 22.4401 36.9721 22.9838 38.1365C23.5276 39.3009 23.8234 40.5656 23.8528 41.8504V42.0889C23.8543 43.5383 24.4308 44.9279 25.4556 45.9527C26.4805 46.9776 27.8701 47.554 29.3194 47.5556H30.2379C31.6873 47.554 33.0769 46.9776 34.1017 45.9527C35.1266 44.9279 35.703 43.5383 35.7046 42.0889V41.2756C35.7268 40.14 35.994 39.0226 36.488 37.9998C36.982 36.977 37.6911 36.073 38.5668 35.3497C39.987 34.1059 41.1266 32.5745 41.9102 30.857C42.6938 29.1396 43.1036 27.2752 43.1122 25.3874C43.1209 23.4996 42.7284 21.6315 41.9606 19.9069C41.1928 18.1823 40.0673 16.6405 38.6587 15.3837V15.3867ZM30.2379 44.5926H29.3194C28.6556 44.5918 28.0193 44.3278 27.5499 43.8584C27.0805 43.3891 26.8165 42.7527 26.8157 42.0889C26.8157 42.0889 26.8054 41.7037 26.8039 41.6297H32.7416V42.0889C32.7409 42.7527 32.4768 43.3891 32.0075 43.8584C31.5381 44.3278 30.9017 44.5918 30.2379 44.5926ZM36.6083 33.1245C34.9215 34.5875 33.7034 36.5152 33.1061 38.6667H31.2602V28.0237C32.1237 27.7184 32.8719 27.1538 33.4023 26.407C33.9326 25.6602 34.2193 24.7678 34.2231 23.8519C34.2231 23.459 34.067 23.0822 33.7892 22.8043C33.5114 22.5265 33.1346 22.3704 32.7416 22.3704C32.3487 22.3704 31.9719 22.5265 31.6941 22.8043C31.4163 23.0822 31.2602 23.459 31.2602 23.8519C31.2602 24.2448 31.1041 24.6216 30.8263 24.8995C30.5484 25.1773 30.1716 25.3334 29.7787 25.3334C29.3858 25.3334 29.009 25.1773 28.7311 24.8995C28.4533 24.6216 28.2972 24.2448 28.2972 23.8519C28.2972 23.459 28.1411 23.0822 27.8633 22.8043C27.5855 22.5265 27.2086 22.3704 26.8157 22.3704C26.4228 22.3704 26.046 22.5265 25.7682 22.8043C25.4903 23.0822 25.3342 23.459 25.3342 23.8519C25.338 24.7678 25.6247 25.6602 26.1551 26.407C26.6855 27.1538 27.4336 27.7184 28.2972 28.0237V38.6667H26.3387C25.6705 36.4581 24.4174 34.4714 22.712 32.9171C21.2645 31.5683 20.2331 29.8337 19.7394 27.9178C19.2457 26.0019 19.3103 23.9848 19.9257 22.1045C20.541 20.2241 21.6814 18.5591 23.2123 17.3058C24.7431 16.0524 26.6005 15.2632 28.5654 15.0311C28.9727 14.9857 29.3822 14.9629 29.792 14.963C32.3366 14.9554 34.793 15.8943 36.6839 17.5971C37.7797 18.5743 38.6553 19.7732 39.2527 21.1144C39.85 22.4557 40.1555 23.9086 40.1487 25.3768C40.142 26.845 39.8233 28.2951 39.2137 29.6308C38.6041 30.9665 37.7175 32.1574 36.6128 33.1245H36.6083Z" fill="#F2C200"/>
</g>
<defs>
<clipPath id="clip0_184_14134">
<rect x="12" y="12" width="35.5556" height="35.5556" rx="7.11111" fill="white"/>
</clipPath>
</defs>
</svg>
