<svg width="208" height="73" viewBox="0 0 208 73" fill="none" xmlns="http://www.w3.org/2000/svg">
<rect y="0.262695" width="72" height="72" rx="8" fill="#FFF5F5"/>
<g clip-path="url(#clip0_96_25794)">
<mask id="mask0_96_25794" style="mask-type:luminance" maskUnits="userSpaceOnUse" x="16" y="16" width="40" height="41">
<path d="M16 16.2647H56V56.2646H16V16.2647Z" fill="white"/>
</mask>
<g mask="url(#mask0_96_25794)">
<path d="M17.1719 31.501V45.5635C18.2785 47.0389 20.0933 47.9072 21.9375 47.9072C23.7819 47.9072 25.5185 47.0389 26.625 45.5635C27.7316 47.0389 29.4683 47.9072 31.3125 47.9072C33.1569 47.9072 34.8935 47.0389 36 45.5635C37.1066 47.0389 38.8433 47.9072 40.6875 47.9072C42.5319 47.9072 44.2685 47.0389 45.375 45.5635C46.4816 47.0389 48.2183 47.9072 50.0625 47.9072C51.9069 47.9072 53.7216 47.0389 54.8281 45.5635V31.501C54.8281 30.2065 53.7787 29.1572 52.4844 29.1572H19.5156C18.2212 29.1572 17.1719 30.2065 17.1719 31.501Z" stroke="#FE4747" stroke-width="2.34375" stroke-miterlimit="10"/>
<path d="M24.2812 24.4697C22.9869 24.4697 21.9375 23.4204 21.9375 22.126V17.4385H26.625V22.126C26.625 23.4204 25.5756 24.4697 24.2812 24.4697Z" stroke="#FE4747" stroke-width="2.34375" stroke-miterlimit="10"/>
<path d="M24.2812 24.4697V29.1572" stroke="#FE4747" stroke-width="2.34375" stroke-miterlimit="10"/>
<path d="M47.7188 24.4697C46.4244 24.4697 45.375 23.4204 45.375 22.126V17.4385H50.0625V22.126C50.0625 23.4204 49.0131 24.4697 47.7188 24.4697Z" stroke="#FE4747" stroke-width="2.34375" stroke-miterlimit="10"/>
<path d="M47.7188 24.4697V29.1572" stroke="#FE4747" stroke-width="2.34375" stroke-miterlimit="10"/>
<path d="M28.9688 29.1572C28.9688 25.2739 32.1167 22.126 36 22.126C39.8833 22.126 43.0312 25.2739 43.0312 29.1572" stroke="#FE4747" stroke-width="2.34375" stroke-miterlimit="10"/>
<path d="M36 18.6104V22.126" stroke="#FE4747" stroke-width="2.34375" stroke-miterlimit="10"/>
<path d="M17.1719 33.8447H54.8281" stroke="#FE4747" stroke-width="2.34375" stroke-miterlimit="10"/>
<path d="M38.3438 47.4181V55.0947H33.6562V47.4181" stroke="#FE4747" stroke-width="2.34375" stroke-miterlimit="10"/>
<path d="M27.7969 55.0947H33.6562" stroke="#FE4747" stroke-width="2.34375" stroke-miterlimit="10"/>
<path d="M38.3438 55.0947H44.203" stroke="#FE4747" stroke-width="2.34375" stroke-miterlimit="10"/>
</g>
</g>
<g opacity="0.5">
<mask id="path-14-outside-1_96_25794" maskUnits="userSpaceOnUse" x="156" y="19.7627" width="53" height="32" fill="black">
<rect fill="white" x="156" y="19.7627" width="53" height="32"/>
<path d="M169.176 50.2027C166.909 50.2027 164.856 49.5894 163.016 48.3627C161.176 47.136 159.722 45.4294 158.656 43.2427C157.616 41.0294 157.096 38.4827 157.096 35.6027C157.096 32.696 157.616 30.1627 158.656 28.0027C159.696 25.816 161.122 24.1227 162.936 22.9227C164.749 21.696 166.802 21.0827 169.096 21.0827C171.416 21.0827 173.482 21.696 175.296 22.9227C177.109 24.1227 178.536 25.816 179.576 28.0027C180.642 30.1894 181.176 32.736 181.176 35.6427C181.176 38.5494 180.642 41.096 179.576 43.2827C178.536 45.4694 177.109 47.176 175.296 48.4027C173.509 49.6027 171.469 50.2027 169.176 50.2027ZM169.136 44.6427C170.309 44.6427 171.322 44.3094 172.176 43.6427C173.029 42.9494 173.682 41.936 174.136 40.6027C174.616 39.2427 174.856 37.5894 174.856 35.6427C174.856 33.6694 174.616 32.016 174.136 30.6827C173.682 29.3494 173.029 28.3494 172.176 27.6827C171.322 26.9894 170.296 26.6427 169.096 26.6427C167.949 26.6427 166.936 26.976 166.056 27.6427C165.202 28.3094 164.549 29.3094 164.096 30.6427C163.642 31.976 163.416 33.6294 163.416 35.6027C163.416 37.576 163.642 39.2294 164.096 40.5627C164.549 41.896 165.202 42.9094 166.056 43.6027C166.936 44.296 167.962 44.6427 169.136 44.6427ZM195.776 50.2027C193.83 50.2027 192.043 49.8694 190.416 49.2027C188.79 48.5094 187.416 47.5227 186.296 46.2427L190.336 42.2027C190.843 42.9494 191.576 43.5627 192.536 44.0427C193.523 44.496 194.563 44.7227 195.656 44.7227C196.643 44.7227 197.496 44.5494 198.216 44.2027C198.936 43.856 199.496 43.3627 199.896 42.7227C200.323 42.0827 200.536 41.3227 200.536 40.4427C200.536 39.5627 200.323 38.816 199.896 38.2027C199.496 37.5627 198.896 37.0694 198.096 36.7227C197.323 36.376 196.39 36.2027 195.296 36.2027C194.79 36.2027 194.256 36.2427 193.696 36.3227C193.163 36.376 192.71 36.4694 192.336 36.6027L195.096 33.1227C195.843 32.9094 196.55 32.736 197.216 32.6027C197.91 32.4427 198.55 32.3627 199.136 32.3627C200.576 32.3627 201.87 32.7094 203.016 33.4027C204.163 34.0694 205.07 35.0294 205.736 36.2827C206.43 37.5094 206.776 38.976 206.776 40.6827C206.776 42.5494 206.31 44.2027 205.376 45.6427C204.47 47.0827 203.19 48.2027 201.536 49.0027C199.91 49.8027 197.99 50.2027 195.776 50.2027ZM192.336 36.6027V33.1227L199.216 25.0427L206.256 25.0027L199.096 33.1627L192.336 36.6027ZM188.056 26.8427V21.5227H206.256V25.0027L201.336 26.8427H188.056Z"/>
</mask>
<path d="M163.016 48.3627L162.461 49.1947L163.016 48.3627ZM158.656 43.2427L157.751 43.668L157.754 43.6746L157.757 43.6811L158.656 43.2427ZM158.656 28.0027L159.557 28.4365L159.559 28.4322L158.656 28.0027ZM162.936 22.9227L163.488 23.7567L163.496 23.751L162.936 22.9227ZM175.296 22.9227L174.735 23.751L174.744 23.7566L175.296 22.9227ZM179.576 28.0027L178.673 28.4322L178.677 28.4411L179.576 28.0027ZM179.576 43.2827L178.677 42.8442L178.673 42.8532L179.576 43.2827ZM175.296 48.4027L175.853 49.2328L175.856 49.231L175.296 48.4027ZM172.176 43.6427L172.791 44.4307L172.799 44.4248L172.806 44.4188L172.176 43.6427ZM174.136 40.6027L173.193 40.2699L173.189 40.2808L174.136 40.6027ZM174.136 30.6827L173.189 31.0046L173.192 31.013L173.195 31.0214L174.136 30.6827ZM172.176 27.6827L171.545 28.4588L171.552 28.4648L171.56 28.4707L172.176 27.6827ZM166.056 27.6427L165.452 26.8456L165.446 26.8501L165.44 26.8547L166.056 27.6427ZM164.096 30.6427L165.042 30.9646L164.096 30.6427ZM164.096 40.5627L165.042 40.2408L164.096 40.5627ZM166.056 43.6027L165.425 44.3788L165.431 44.3835L165.437 44.3882L166.056 43.6027ZM169.176 49.2027C167.101 49.2027 165.242 48.6449 163.57 47.5306L162.461 49.1947C164.469 50.5338 166.717 51.2027 169.176 51.2027V49.2027ZM163.57 47.5306C161.892 46.412 160.551 44.848 159.554 42.8043L157.757 43.6811C158.893 46.0108 160.459 47.86 162.461 49.1947L163.57 47.5306ZM159.561 42.8174C158.593 40.7587 158.096 38.3616 158.096 35.6027H156.096C156.096 38.6038 156.638 41.3 157.751 43.668L159.561 42.8174ZM158.096 35.6027C158.096 32.8148 158.594 30.4355 159.557 28.4365L157.755 27.5689C156.637 29.8899 156.096 32.5772 156.096 35.6027H158.096ZM159.559 28.4322C160.53 26.3906 161.843 24.8452 163.487 23.7566L162.384 22.0888C160.402 23.4002 158.862 25.2415 157.753 27.5732L159.559 28.4322ZM163.496 23.751C165.136 22.6417 166.992 22.0827 169.096 22.0827V20.0827C166.613 20.0827 164.362 20.7503 162.375 22.0944L163.496 23.751ZM169.096 22.0827C171.228 22.0827 173.098 22.6431 174.735 23.751L175.856 22.0944C173.867 20.749 171.603 20.0827 169.096 20.0827V22.0827ZM174.744 23.7566C176.389 24.8452 177.702 26.3906 178.673 28.4322L180.479 27.5732C179.37 25.2415 177.829 23.4002 175.847 22.0888L174.744 23.7566ZM178.677 28.4411C179.665 30.4672 180.176 32.8587 180.176 35.6427H182.176C182.176 32.6134 181.619 29.9116 180.474 27.5643L178.677 28.4411ZM180.176 35.6427C180.176 38.4267 179.665 40.8182 178.677 42.8443L180.474 43.7211C181.619 41.3738 182.176 38.672 182.176 35.6427H180.176ZM178.673 42.8532C177.701 44.8963 176.386 46.4581 174.735 47.5744L175.856 49.231C177.832 47.894 179.37 46.0424 180.479 43.7122L178.673 42.8532ZM174.738 47.5726C173.127 48.6544 171.284 49.2027 169.176 49.2027V51.2027C171.654 51.2027 173.891 50.551 175.853 49.2328L174.738 47.5726ZM169.136 45.6427C170.512 45.6427 171.747 45.2465 172.791 44.4307L171.56 42.8547C170.897 43.3722 170.106 43.6427 169.136 43.6427V45.6427ZM172.806 44.4188C173.841 43.5777 174.585 42.3867 175.082 40.9246L173.189 40.2808C172.779 41.4854 172.217 42.321 171.545 42.8666L172.806 44.4188ZM175.079 40.9355C175.607 39.4385 175.856 37.6657 175.856 35.6427H173.856C173.856 37.513 173.624 39.0469 173.193 40.2699L175.079 40.9355ZM175.856 35.6427C175.856 33.5958 175.608 31.8194 175.077 30.344L173.195 31.0214C173.624 32.2126 173.856 33.7429 173.856 35.6427H175.856ZM175.082 30.3608C174.585 28.8978 173.838 27.7124 172.791 26.8947L171.56 28.4707C172.22 28.9864 172.78 29.8009 173.189 31.0046L175.082 30.3608ZM172.806 26.9066C171.758 26.0549 170.503 25.6427 169.096 25.6427V27.6427C170.088 27.6427 170.887 27.9238 171.545 28.4588L172.806 26.9066ZM169.096 25.6427C167.74 25.6427 166.513 26.0419 165.452 26.8456L166.659 28.4398C167.359 27.9101 168.158 27.6427 169.096 27.6427V25.6427ZM165.44 26.8547C164.393 27.6724 163.646 28.8578 163.149 30.3208L165.042 30.9646C165.452 29.7609 166.011 28.9464 166.671 28.4307L165.44 26.8547ZM163.149 30.3208C162.649 31.7902 162.416 33.5603 162.416 35.6027H164.416C164.416 33.6984 164.635 32.1619 165.042 30.9646L163.149 30.3208ZM162.416 35.6027C162.416 37.6451 162.649 39.4152 163.149 40.8846L165.042 40.2408C164.635 39.0435 164.416 37.507 164.416 35.6027H162.416ZM163.149 40.8846C163.646 42.3466 164.39 43.5377 165.425 44.3788L166.686 42.8266C166.015 42.281 165.452 41.4454 165.042 40.2408L163.149 40.8846ZM165.437 44.3882C166.502 45.2274 167.749 45.6427 169.136 45.6427V43.6427C168.175 43.6427 167.369 43.3647 166.674 42.8172L165.437 44.3882ZM190.416 49.2027L190.024 50.1227L190.037 50.128L190.416 49.2027ZM186.296 46.2427L185.589 45.5356L184.928 46.1971L185.544 46.9012L186.296 46.2427ZM190.336 42.2027L191.164 41.6412L190.485 40.6402L189.629 41.4956L190.336 42.2027ZM192.536 44.0427L192.089 44.9371L192.104 44.9445L192.119 44.9514L192.536 44.0427ZM198.216 44.2027L197.782 43.3017L198.216 44.2027ZM199.896 42.7227L199.064 42.168L199.056 42.1802L199.048 42.1927L199.896 42.7227ZM199.896 38.2027L199.048 38.7327L199.061 38.7536L199.075 38.7738L199.896 38.2027ZM198.096 36.7227L197.687 37.6353L197.699 37.6403L198.096 36.7227ZM193.696 36.3227L193.796 37.3177L193.817 37.3156L193.838 37.3126L193.696 36.3227ZM192.336 36.6027L191.553 35.9813L189.381 38.7202L192.673 37.5444L192.336 36.6027ZM195.096 33.1227L194.822 32.1612L194.512 32.2495L194.313 32.5013L195.096 33.1227ZM197.216 32.6027L197.412 33.5833L197.427 33.5804L197.441 33.5771L197.216 32.6027ZM203.016 33.4027L202.499 34.2584L202.506 34.2629L202.514 34.2672L203.016 33.4027ZM205.736 36.2827L204.853 36.7523L204.859 36.7636L204.866 36.7748L205.736 36.2827ZM205.376 45.6427L204.537 45.0988L204.53 45.1099L205.376 45.6427ZM201.536 49.0027L201.101 48.1025L201.095 48.1053L201.536 49.0027ZM192.336 36.6027H191.336V38.2336L192.79 37.4939L192.336 36.6027ZM192.336 33.1227L191.575 32.4744L191.336 32.7546V33.1227H192.336ZM199.216 25.0427L199.211 24.0427L198.752 24.0453L198.455 24.3944L199.216 25.0427ZM206.256 25.0027L207.008 25.6622L208.475 23.9901L206.251 24.0027L206.256 25.0027ZM199.096 33.1627L199.55 34.0539L199.721 33.9667L199.848 33.8222L199.096 33.1627ZM188.056 26.8427H187.056V27.8427H188.056V26.8427ZM188.056 21.5227V20.5227H187.056V21.5227H188.056ZM206.256 21.5227H207.256V20.5227H206.256V21.5227ZM206.256 25.0027L206.607 25.9393L207.256 25.6964V25.0027H206.256ZM201.336 26.8427V27.8427H201.517L201.687 27.7793L201.336 26.8427ZM195.776 49.2027C193.946 49.2027 192.29 48.8897 190.795 48.2774L190.037 50.128C191.796 50.849 193.714 51.2027 195.776 51.2027V49.2027ZM190.808 48.2828C189.314 47.646 188.066 46.7465 187.049 45.5842L185.544 46.9012C186.767 48.2988 188.265 49.3727 190.024 50.1226L190.808 48.2828ZM187.003 46.9498L191.043 42.9098L189.629 41.4956L185.589 45.5356L187.003 46.9498ZM189.509 42.7642C190.128 43.6772 191.005 44.3951 192.089 44.9371L192.983 43.1483C192.148 42.7303 191.558 42.2215 191.164 41.6412L189.509 42.7642ZM192.119 44.9514C193.237 45.4653 194.42 45.7227 195.656 45.7227V43.7227C194.706 43.7227 193.809 43.5268 192.954 43.134L192.119 44.9514ZM195.656 45.7227C196.759 45.7227 197.767 45.529 198.65 45.1037L197.782 43.3017C197.226 43.5697 196.527 43.7227 195.656 43.7227V45.7227ZM198.65 45.1037C199.53 44.6801 200.238 44.0626 200.744 43.2527L199.048 42.1927C198.754 42.6628 198.343 43.032 197.782 43.3017L198.65 45.1037ZM200.728 43.2774C201.28 42.4503 201.536 41.4908 201.536 40.4427H199.536C199.536 41.1546 199.366 41.715 199.064 42.168L200.728 43.2774ZM201.536 40.4427C201.536 39.3958 201.28 38.4407 200.717 37.6316L199.075 38.7738C199.366 39.1913 199.536 39.7296 199.536 40.4427H201.536ZM200.744 37.6727C200.221 36.8353 199.45 36.2195 198.494 35.8051L197.699 37.6403C198.342 37.9192 198.772 38.2901 199.048 38.7327L200.744 37.6727ZM198.505 35.8102C197.572 35.3917 196.491 35.2027 195.296 35.2027V37.2027C196.288 37.2027 197.074 37.3604 197.687 37.6352L198.505 35.8102ZM195.296 35.2027C194.737 35.2027 194.156 35.2468 193.555 35.3327L193.838 37.3126C194.356 37.2386 194.842 37.2027 195.296 37.2027V35.2027ZM193.597 35.3277C193.009 35.3864 192.471 35.4927 192 35.661L192.673 37.5444C192.948 37.4461 193.317 37.3656 193.796 37.3177L193.597 35.3277ZM193.12 37.2241L195.88 33.7441L194.313 32.5013L191.553 35.9813L193.12 37.2241ZM195.371 34.0842C196.095 33.8773 196.776 33.7106 197.412 33.5833L197.02 31.6221C196.324 31.7614 195.591 31.9414 194.822 32.1612L195.371 34.0842ZM197.441 33.5771C198.076 33.4306 198.639 33.3627 199.136 33.3627V31.3627C198.46 31.3627 197.743 31.4548 196.991 31.6283L197.441 33.5771ZM199.136 33.3627C200.408 33.3627 201.52 33.6665 202.499 34.2584L203.534 32.547C202.219 31.7522 200.745 31.3627 199.136 31.3627V33.3627ZM202.514 34.2672C203.488 34.8336 204.268 35.6514 204.853 36.7523L206.619 35.8131C205.871 34.4073 204.838 33.3051 203.519 32.5382L202.514 34.2672ZM204.866 36.7748C205.458 37.8226 205.776 39.1122 205.776 40.6827H207.776C207.776 38.8399 207.401 37.1961 206.607 35.7906L204.866 36.7748ZM205.776 40.6827C205.776 42.374 205.356 43.835 204.537 45.0988L206.215 46.1866C207.263 44.5704 207.776 42.7247 207.776 40.6827H205.776ZM204.53 45.1099C203.731 46.3788 202.599 47.3774 201.101 48.1025L201.972 49.9029C203.78 49.028 205.208 47.7866 206.222 46.1755L204.53 45.1099ZM201.095 48.1053C199.633 48.8245 197.87 49.2027 195.776 49.2027V51.2027C198.109 51.2027 200.187 50.7809 201.978 49.9L201.095 48.1053ZM193.336 36.6027V33.1227H191.336V36.6027H193.336ZM193.098 33.771L199.978 25.691L198.455 24.3944L191.575 32.4744L193.098 33.771ZM199.222 26.0427L206.262 26.0027L206.251 24.0027L199.211 24.0427L199.222 26.0427ZM205.505 24.3431L198.345 32.5031L199.848 33.8222L207.008 25.6622L205.505 24.3431ZM198.643 32.2715L191.883 35.7115L192.79 37.4939L199.55 34.0539L198.643 32.2715ZM189.056 26.8427V21.5227H187.056V26.8427H189.056ZM188.056 22.5227H206.256V20.5227H188.056V22.5227ZM205.256 21.5227V25.0027H207.256V21.5227H205.256ZM205.906 24.0661L200.986 25.9061L201.687 27.7793L206.607 25.9393L205.906 24.0661ZM201.336 25.8427H188.056V27.8427H201.336V25.8427Z" fill="#717171" mask="url(#path-14-outside-1_96_25794)"/>
</g>
<defs>
<clipPath id="clip0_96_25794">
<rect width="40" height="40" fill="white" transform="translate(16 16.2627)"/>
</clipPath>
</defs>
</svg>
