<svg width="208" height="73" viewBox="0 0 208 73" fill="none" xmlns="http://www.w3.org/2000/svg">
<rect y="0.262695" width="72" height="72" rx="8" fill="#FFF5F5"/>
<g clip-path="url(#clip0_96_25830)">
<path d="M55.9999 44.5116C55.9999 42.171 55.299 39.9109 53.9727 37.9757C53.0188 36.5837 51.7904 35.4278 50.3669 34.5688C52.0429 32.9816 53.0915 30.7383 53.0915 28.2532C53.0915 23.4547 49.1876 19.5508 44.3892 19.5508C41.5438 19.5508 38.8785 20.958 37.2595 23.268C36.8481 23.2081 36.4278 23.1758 35.9999 23.1758C35.5721 23.1758 35.1519 23.2082 34.7405 23.268C33.1214 20.958 30.4561 19.5508 27.6108 19.5508C22.8123 19.5508 18.9084 23.4547 18.9084 28.2532C18.9084 30.7383 19.957 32.9816 21.6331 34.5688C20.2095 35.4277 18.9811 36.5837 18.0273 37.9756C16.701 39.9109 16 42.171 16 44.5116V49.3521H24.3892V52.977H47.6109V49.3521H56V44.5116H55.9999ZM44.3892 21.6986C48.0034 21.6986 50.9438 24.639 50.9438 28.2534C50.9438 31.8677 48.0034 34.8081 44.3892 34.8081C44.3244 34.8081 44.2597 34.8071 44.1948 34.8052C44.1997 34.7914 44.2038 34.7774 44.2086 34.7636C44.3205 34.4464 44.4139 34.1206 44.4887 33.7878C44.494 33.7642 44.5 33.7407 44.505 33.717C44.5245 33.6272 44.5415 33.5366 44.5582 33.4458C44.566 33.4028 44.5741 33.3599 44.5813 33.3169C44.5948 33.2358 44.6071 33.1544 44.6183 33.0727C44.6262 33.0159 44.6333 32.9591 44.64 32.9022C44.6485 32.83 44.6568 32.7577 44.6635 32.685C44.6704 32.6108 44.6756 32.5365 44.6805 32.4621C44.6844 32.4034 44.6892 32.345 44.6919 32.2861C44.6978 32.1597 44.7011 32.0331 44.7016 31.9064C44.7016 31.897 44.7023 31.8879 44.7023 31.8784C44.7023 31.8734 44.7019 31.8683 44.7019 31.8633C44.7017 31.7339 44.6979 31.6052 44.6921 31.477C44.6904 31.4398 44.6881 31.4026 44.686 31.3654C44.6796 31.2564 44.6714 31.148 44.6612 31.0401C44.6588 31.0156 44.6569 30.9911 44.6544 30.9667C44.3299 27.83 42.3483 25.1452 39.4896 23.9034C40.7215 22.5195 42.5032 21.6986 44.3892 21.6986ZM33.732 25.728C33.753 25.7204 33.7741 25.7132 33.7951 25.7057C33.8603 25.6824 33.926 25.6603 33.992 25.6389C34.0421 25.6229 34.0924 25.6074 34.1431 25.5926C34.1799 25.5818 34.2169 25.5714 34.2539 25.561C34.3201 25.5429 34.3866 25.5252 34.4537 25.509C34.9498 25.3885 35.4672 25.3231 35.9997 25.3231C36.5327 25.3235 37.0503 25.389 37.5465 25.5095C37.6132 25.5256 37.6793 25.5432 37.7451 25.5613C37.7827 25.5717 37.8203 25.5822 37.8575 25.5933C37.9076 25.608 37.9574 25.6232 38.0069 25.639C38.0738 25.6606 38.1403 25.6829 38.2062 25.7066C38.2265 25.7137 38.2468 25.7206 38.267 25.728C40.4591 26.5387 42.1027 28.4896 42.4747 30.8572C42.4776 30.8761 42.4804 30.8951 42.4831 30.9141C42.4951 30.9943 42.505 31.0752 42.514 31.1563C42.5172 31.1861 42.5206 31.2159 42.5235 31.2458C42.5306 31.3198 42.5359 31.3943 42.5406 31.4691C42.5425 31.5011 42.5452 31.533 42.5467 31.5651C42.5512 31.6605 42.5537 31.7565 42.554 31.8531C42.554 31.8615 42.5546 31.8696 42.5546 31.878C42.5546 31.8819 42.5543 31.8858 42.5543 31.8897C42.5541 31.9831 42.5513 32.0759 42.5473 32.1684C42.546 32.1975 42.5447 32.2266 42.543 32.2556C42.5379 32.3449 42.5313 32.4338 42.5227 32.5221C42.5193 32.5563 42.5148 32.5903 42.511 32.6243C42.5044 32.6815 42.4971 32.7385 42.4892 32.7952C42.4829 32.8393 42.4767 32.8836 42.4696 32.9275C42.4588 32.9944 42.4467 33.0609 42.4339 33.1271C42.4224 33.1861 42.4098 33.2448 42.3967 33.3035C42.3889 33.3388 42.3807 33.3741 42.3722 33.4092C42.3513 33.4963 42.3283 33.5829 42.3038 33.6691C42.294 33.7034 42.2849 33.7378 42.2746 33.7718C42.2597 33.8212 42.2436 33.8701 42.2276 33.9191C42.2147 33.9583 42.2015 33.9973 42.1878 34.0362C42.1724 34.0803 42.1571 34.1245 42.1408 34.1684C42.113 34.2428 42.0838 34.3166 42.0534 34.3897C42.0398 34.4223 42.0255 34.4547 42.0114 34.4872C41.9849 34.5481 41.9576 34.6087 41.9292 34.6686C41.9259 34.6757 41.9226 34.6827 41.9193 34.6898C41.909 34.7111 41.899 34.7325 41.8885 34.7537C41.8568 34.8186 41.8237 34.8827 41.7897 34.9463C41.7765 34.971 41.7638 34.996 41.7502 35.0206C41.7494 35.0222 41.7485 35.0237 41.7476 35.0252C41.7105 35.0929 41.6717 35.1594 41.6323 35.2256C41.6166 35.2518 41.6012 35.2781 41.5852 35.304C41.5422 35.3737 41.4981 35.4426 41.4527 35.5105C41.4244 35.5527 41.3949 35.594 41.3657 35.6356C41.3409 35.6708 41.3162 35.7062 41.2907 35.7408C41.2577 35.7857 41.2241 35.8301 41.19 35.8742C41.1668 35.9042 41.1434 35.9339 41.1198 35.9636C41.0837 36.0087 41.0473 36.0535 41.0101 36.0977C40.987 36.1251 40.9633 36.1519 40.9398 36.1789C40.9011 36.2232 40.8626 36.2677 40.8228 36.311C40.7992 36.3366 40.7747 36.3613 40.7507 36.3867C40.686 36.4549 40.6199 36.5215 40.5524 36.5869C40.5124 36.6257 40.4725 36.6646 40.4315 36.7023C40.4032 36.7284 40.3741 36.7537 40.3452 36.7794C40.2981 36.8212 40.2508 36.8625 40.2026 36.9029C40.1781 36.9234 40.1534 36.9437 40.1286 36.9639C40.0703 37.0113 40.0112 37.0578 39.9512 37.1034C39.9348 37.1157 39.9187 37.1283 39.9023 37.1405C38.8112 37.9516 37.4607 38.4324 35.9998 38.4324C34.5388 38.4324 33.1881 37.9515 32.0971 37.1402C32.0809 37.1282 32.0652 37.1158 32.0492 37.1037C31.9889 37.0581 31.9295 37.0112 31.871 36.9636C31.8464 36.9435 31.8218 36.9234 31.7976 36.903C31.7491 36.8624 31.7017 36.8208 31.6544 36.7789C31.6257 36.7534 31.5967 36.7283 31.5685 36.7023C31.5274 36.6645 31.4874 36.6255 31.4473 36.5867C31.3795 36.5211 31.3132 36.4542 31.2484 36.3858C31.2246 36.3608 31.2004 36.3364 31.1771 36.3111C31.1372 36.2677 31.0987 36.2231 31.06 36.1788C31.0365 36.1518 31.0129 36.1251 30.9898 36.0977C30.9525 36.0535 30.9162 36.0087 30.8801 35.9637C30.8565 35.934 30.833 35.9043 30.8098 35.8742C30.7758 35.8302 30.7422 35.7858 30.7092 35.7409C30.6837 35.7061 30.6589 35.6707 30.6341 35.6354C30.6049 35.5939 30.5755 35.5527 30.5473 35.5106C30.5017 35.4424 30.4574 35.3732 30.4143 35.3033C30.3985 35.2777 30.3833 35.2518 30.3678 35.2259C30.3277 35.1588 30.2885 35.0914 30.2509 35.0227C30.237 34.9975 30.2239 34.9718 30.2103 34.9465C30.1763 34.8827 30.1431 34.8184 30.1112 34.7534C30.0999 34.7303 30.0888 34.707 30.0777 34.6838C30.076 34.6803 30.0744 34.6767 30.0728 34.6732C30.0431 34.6105 30.0146 34.5471 29.9868 34.4832C29.9736 34.4528 29.9602 34.4225 29.9475 34.392C29.9163 34.3173 29.8866 34.2419 29.8581 34.1659C29.8428 34.1249 29.8286 34.0834 29.8141 34.0421C29.7992 33.9997 29.7848 33.9569 29.7707 33.9141C29.7556 33.8677 29.7403 33.8213 29.7262 33.7747C29.705 33.705 29.685 33.6349 29.6662 33.5643C29.653 33.5148 29.6411 33.4649 29.629 33.415C29.6195 33.3758 29.6104 33.3366 29.6017 33.2972C29.591 33.2489 29.5801 33.2007 29.5704 33.1522C29.5555 33.0766 29.5419 33.0005 29.5296 32.9241C29.523 32.8828 29.5172 32.8415 29.5113 32.8002C29.5026 32.7391 29.4947 32.6777 29.4878 32.6161C29.4843 32.5857 29.4803 32.5553 29.4772 32.5249C29.4683 32.4344 29.4616 32.3432 29.4564 32.2517C29.4549 32.2254 29.4537 32.1991 29.4525 32.1728C29.4481 32.075 29.445 31.9768 29.445 31.878C29.445 31.7721 29.448 31.667 29.4531 31.5623C29.4545 31.5338 29.4568 31.5056 29.4584 31.4772C29.4632 31.3986 29.4689 31.3202 29.4764 31.2423C29.479 31.2151 29.4821 31.188 29.485 31.161C29.4942 31.0766 29.5046 30.9926 29.5171 30.9092C29.5194 30.8929 29.5218 30.8766 29.5244 30.8604C29.8952 28.4914 31.5391 26.5392 33.732 25.728ZM21.0561 28.2534C21.0561 24.6391 23.9965 21.6986 27.6108 21.6986C29.4969 21.6986 31.2786 22.5196 32.5104 23.9032C29.6508 25.1455 27.6687 27.8315 27.3452 30.9695C27.3429 30.9908 27.3413 31.0121 27.3393 31.0335C27.3285 31.1453 27.32 31.2575 27.3136 31.3704C27.3117 31.4047 27.3095 31.439 27.3079 31.4735C27.3018 31.6078 27.2976 31.7426 27.2976 31.8783C27.2976 32.0154 27.3016 32.1521 27.308 32.2887C27.3106 32.3436 27.3151 32.3981 27.3186 32.4527C27.3239 32.5313 27.3293 32.61 27.3366 32.6883C27.343 32.758 27.351 32.8273 27.3591 32.8966C27.3662 32.9569 27.3737 33.0171 27.3821 33.0772C27.3931 33.1561 27.4049 33.2347 27.4179 33.313C27.4257 33.3595 27.4343 33.4059 27.4428 33.4523C27.4589 33.5399 27.4753 33.6273 27.494 33.714C27.5002 33.7426 27.5073 33.7709 27.5138 33.7994C27.5867 34.1219 27.6772 34.4376 27.785 34.7455C27.7919 34.7653 27.7979 34.7854 27.8049 34.8052C27.7401 34.8071 27.6753 34.8081 27.6106 34.8081C23.9965 34.808 21.0561 31.8676 21.0561 28.2534ZM26.1898 41.9454C26.1662 41.9826 26.1436 42.0205 26.1204 42.058C26.0713 42.1373 26.0227 42.2167 25.9756 42.2969C25.9493 42.3417 25.924 42.3868 25.8984 42.4319C25.8561 42.5064 25.8144 42.581 25.7738 42.6563C25.7482 42.7036 25.7231 42.7512 25.6982 42.7988C25.6591 42.8736 25.6209 42.9489 25.5836 43.0244C25.5601 43.0719 25.5367 43.1192 25.5139 43.1669C25.4759 43.2465 25.4392 43.3267 25.4031 43.407C25.3834 43.4507 25.3632 43.4941 25.3442 43.538C25.3023 43.6342 25.2624 43.7312 25.2232 43.8285C25.2117 43.857 25.1995 43.8851 25.1883 43.9136C25.1386 44.04 25.091 44.1672 25.0459 44.2951C25.0356 44.3244 25.0263 44.3541 25.0161 44.3834C24.9822 44.482 24.9491 44.5809 24.9179 44.6802C24.9036 44.7258 24.8904 44.7717 24.8766 44.8174C24.8514 44.9016 24.8266 44.9859 24.8033 45.0708C24.7894 45.1212 24.7762 45.1718 24.763 45.2225C24.7418 45.3039 24.7214 45.3855 24.702 45.4675C24.6897 45.5193 24.6777 45.5712 24.6662 45.6232C24.6477 45.7062 24.6304 45.7895 24.6138 45.8729C24.6038 45.9231 24.5935 45.9732 24.5841 46.0236C24.5673 46.1145 24.5521 46.2057 24.5374 46.2971C24.5305 46.3401 24.5229 46.3828 24.5165 46.4258C24.4965 46.56 24.4783 46.6946 24.4631 46.8298C24.4629 46.8314 24.4628 46.833 24.4627 46.8346C24.4488 46.9576 24.4369 47.0807 24.4269 47.2043H18.1477V44.5116C18.1477 40.8327 20.2626 37.53 23.576 35.9602C24.783 36.5947 26.1551 36.9558 27.6107 36.9558C28.0317 36.9558 28.4539 36.9247 28.873 36.863C28.9383 36.9561 29.0046 37.0483 29.0733 37.1387C29.0965 37.1691 29.1206 37.1987 29.1442 37.2288C29.2121 37.3156 29.2809 37.4014 29.352 37.4855C29.3811 37.5199 29.411 37.5536 29.4406 37.5877C29.5072 37.6641 29.5748 37.7396 29.644 37.8136C29.6803 37.8526 29.7172 37.8909 29.7542 37.9293C29.8174 37.9945 29.8815 38.0587 29.9467 38.1219C29.9712 38.1457 29.9943 38.1708 30.019 38.1943C29.9257 38.2507 29.8332 38.3085 29.7416 38.3674C29.7267 38.377 29.7121 38.3871 29.6973 38.3967C29.6057 38.4562 29.515 38.517 29.4253 38.579C29.3942 38.6005 29.3633 38.6221 29.3324 38.6438C29.2524 38.7002 29.1732 38.7576 29.0947 38.8159C29.0699 38.8343 29.0448 38.8524 29.0202 38.8711C28.9203 38.9466 28.8216 39.0235 28.7242 39.1021C28.703 39.1192 28.6821 39.137 28.6609 39.1544C28.5833 39.2178 28.5066 39.2824 28.4307 39.3479C28.4013 39.3732 28.3721 39.3988 28.3429 39.4244C28.267 39.4913 28.192 39.5592 28.1178 39.628C28.0985 39.646 28.0787 39.6636 28.0595 39.6817C27.9684 39.7674 27.8788 39.8547 27.7904 39.9436C27.7674 39.9666 27.745 39.9902 27.7222 40.0134C27.6545 40.0824 27.5876 40.1522 27.5216 40.223C27.4954 40.2511 27.4692 40.2792 27.4432 40.3077C27.3689 40.3889 27.2957 40.4711 27.2236 40.5546C27.2123 40.5677 27.2006 40.5804 27.1893 40.5936C27.1072 40.6895 27.0269 40.7872 26.9476 40.8859C26.9255 40.9134 26.9039 40.9413 26.8821 40.9691C26.8225 41.0448 26.7638 41.1213 26.706 41.1985C26.6837 41.2283 26.6612 41.258 26.6392 41.288C26.5636 41.3911 26.489 41.4951 26.4165 41.6009C26.3386 41.7145 26.2632 41.8295 26.1898 41.9454ZM26.537 50.8293V49.3522V48.1366C26.537 48.0174 26.5392 47.8986 26.5436 47.7801C26.545 47.7412 26.5481 47.7025 26.5501 47.6636C26.5539 47.5846 26.5576 47.5055 26.5634 47.4267C26.5669 47.379 26.5723 47.3316 26.5766 47.2839C26.5828 47.2145 26.5884 47.1451 26.5961 47.0761C26.6018 47.0256 26.6092 46.9755 26.6157 46.9251C26.6241 46.8595 26.6319 46.7938 26.6416 46.7285C26.6494 46.6765 26.6588 46.625 26.6674 46.5732C26.678 46.5103 26.6877 46.4471 26.6995 46.3845C26.7095 46.3316 26.7211 46.2792 26.732 46.2265C26.7444 46.1657 26.7564 46.1047 26.77 46.0443C26.782 45.9911 26.7958 45.9383 26.8087 45.8853C26.8232 45.8262 26.837 45.7669 26.8526 45.7081C26.8668 45.6547 26.8824 45.6019 26.8975 45.549C26.9138 45.4913 26.9297 45.4335 26.9471 45.3763C26.9633 45.323 26.9811 45.2702 26.9982 45.2172C27.0164 45.1611 27.0342 45.1048 27.0534 45.0491C27.0716 44.9963 27.0913 44.944 27.1104 44.8917C27.1306 44.8366 27.1504 44.7811 27.1715 44.7264C27.1917 44.6743 27.2132 44.6229 27.2341 44.5711C27.2561 44.5171 27.2778 44.4627 27.3008 44.4092C27.323 44.3575 27.3465 44.3064 27.3695 44.2553C27.3933 44.2025 27.4168 44.1496 27.4415 44.0974C27.4657 44.0464 27.491 43.996 27.516 43.9455C27.5416 43.8939 27.5668 43.8423 27.5932 43.7912C27.6193 43.741 27.6465 43.6914 27.6734 43.6417C27.7007 43.5913 27.7277 43.5409 27.7558 43.4911C27.7837 43.4417 27.8127 43.3931 27.8414 43.3442C27.8704 43.295 27.8992 43.2457 27.9291 43.197C27.9589 43.1485 27.9896 43.1009 28.0202 43.053C28.0509 43.005 28.0814 42.957 28.113 42.9095C28.1446 42.862 28.177 42.8152 28.2094 42.7684C28.2417 42.7217 28.274 42.6749 28.307 42.6288C28.3403 42.5824 28.3746 42.5366 28.4088 42.4908C28.4428 42.4454 28.4766 42.3999 28.5113 42.3552C28.5463 42.3099 28.5822 42.2654 28.618 42.2207C28.6536 42.1765 28.6892 42.1323 28.7255 42.0887C28.7621 42.0449 28.7995 42.0016 28.8369 41.9585C28.8741 41.9154 28.9115 41.8723 28.9496 41.8298C28.9878 41.7873 29.0267 41.7454 29.0656 41.7035C29.1045 41.6618 29.1434 41.6202 29.183 41.5792C29.2227 41.5379 29.2632 41.4973 29.3038 41.4569C29.3443 41.4164 29.385 41.3761 29.4262 41.3363C29.4674 41.2966 29.5091 41.2575 29.5511 41.2186C29.5932 41.1795 29.6355 41.1405 29.6784 41.102C29.7211 41.0638 29.7643 41.0261 29.8078 40.9886C29.8514 40.951 29.8953 40.9135 29.9396 40.8765C29.9838 40.8398 30.0283 40.8036 30.0732 40.7676C30.1184 40.7313 30.164 40.6954 30.2099 40.6598C30.2554 40.6248 30.3012 40.5902 30.3473 40.5559C30.3941 40.521 30.4412 40.4865 30.4889 40.4525C30.5355 40.4191 30.5826 40.3862 30.6299 40.3536C30.6785 40.3202 30.7272 40.2872 30.7764 40.2547C30.8242 40.2231 30.8724 40.1918 30.9208 40.161C30.971 40.1291 31.0215 40.0977 31.0723 40.0667C31.1212 40.0369 31.1705 40.0073 31.2201 39.9783C31.2717 39.9482 31.3237 39.9184 31.376 39.8891C31.4261 39.861 31.4766 39.8332 31.5274 39.8059C31.5805 39.7773 31.6341 39.7493 31.688 39.7216C31.7391 39.6953 31.7905 39.6694 31.8422 39.6439C31.8829 39.624 31.9241 39.6046 31.9652 39.5852C33.1721 40.2196 34.5444 40.5807 35.9999 40.5807C37.4556 40.5807 38.8278 40.2196 40.0347 39.5852C40.0755 39.6045 40.1163 39.6238 40.1567 39.6435C40.2091 39.6693 40.261 39.6955 40.3127 39.722C40.366 39.7494 40.419 39.7771 40.4717 39.8053C40.523 39.8329 40.574 39.8611 40.6247 39.8895C40.6763 39.9185 40.7277 39.9478 40.7786 39.9777C40.8289 40.0071 40.8789 40.0371 40.9285 40.0674C40.9786 40.098 41.0284 40.1289 41.0778 40.1604C41.1269 40.1916 41.1757 40.2232 41.2241 40.2553C41.2728 40.2874 41.321 40.3201 41.3689 40.353C41.4167 40.386 41.4642 40.4192 41.5114 40.4529C41.5585 40.4866 41.6051 40.5208 41.6515 40.5553C41.6981 40.5899 41.7444 40.6248 41.7903 40.6603C41.8358 40.6955 41.8809 40.7311 41.9258 40.7671C41.9709 40.8033 42.0158 40.8397 42.0603 40.8766C42.1044 40.9134 42.148 40.9506 42.1914 40.9881C42.2351 41.0258 42.2786 41.0637 42.3215 41.1023C42.364 41.1404 42.406 41.179 42.4478 41.2178C42.4901 41.2571 42.5323 41.2966 42.5739 41.3367C42.6148 41.3761 42.6551 41.416 42.6951 41.4561C42.7359 41.4969 42.7767 41.5378 42.8168 41.5793C42.8561 41.6201 42.8949 41.6613 42.9334 41.7028C42.9727 41.745 43.0119 41.7873 43.0504 41.8301C43.0882 41.8722 43.1252 41.9149 43.1622 41.9576C43.1998 42.0011 43.2375 42.0447 43.2744 42.0889C43.3106 42.1322 43.3459 42.1761 43.3812 42.2201C43.4173 42.2649 43.4534 42.3097 43.4886 42.3553C43.5232 42.3998 43.5568 42.445 43.5905 42.4902C43.6249 42.5362 43.6593 42.5823 43.6928 42.6289C43.7257 42.6747 43.7578 42.7213 43.7899 42.7678C43.8225 42.8149 43.8551 42.8619 43.8868 42.9096C43.9182 42.9567 43.9484 43.0044 43.9789 43.0521C44.0098 43.1003 44.0407 43.1484 44.0707 43.1972C44.1003 43.2454 44.1289 43.2944 44.1576 43.3431C44.1866 43.3923 44.2158 43.4414 44.2439 43.4911C44.2719 43.5407 44.2987 43.591 44.3259 43.641C44.353 43.6909 44.3802 43.7408 44.4063 43.7911C44.4328 43.842 44.4579 43.8937 44.4834 43.9451C44.5085 43.9957 44.5339 44.0462 44.5581 44.0973C44.5828 44.1495 44.6062 44.2022 44.6298 44.2548C44.653 44.3063 44.6765 44.3574 44.6988 44.4093C44.7216 44.4624 44.743 44.5162 44.7649 44.5699C44.7862 44.6221 44.8079 44.6741 44.8282 44.7267C44.8492 44.7811 44.8689 44.8362 44.8889 44.8912C44.9082 44.9437 44.9278 44.996 44.9461 45.049C44.9654 45.1049 44.9832 45.1615 45.0015 45.2179C45.0186 45.2706 45.0363 45.3231 45.0524 45.3763C45.0699 45.4335 45.0857 45.4914 45.1021 45.5491C45.1171 45.602 45.1328 45.6547 45.147 45.7081C45.1626 45.7669 45.1764 45.8261 45.1909 45.8853C45.2039 45.9382 45.2175 45.9911 45.2296 46.0443C45.2432 46.1047 45.255 46.1656 45.2676 46.2263C45.2784 46.279 45.29 46.3315 45.3 46.3845C45.3117 46.4466 45.3214 46.5092 45.3319 46.5717C45.3406 46.624 45.3503 46.676 45.3581 46.7286C45.3678 46.7934 45.3755 46.8587 45.3839 46.9237C45.3904 46.9745 45.398 47.025 45.4037 47.076C45.4114 47.145 45.417 47.2144 45.4232 47.2838C45.4275 47.3315 45.4329 47.3788 45.4364 47.4266C45.4423 47.5053 45.4459 47.5846 45.4497 47.6637C45.4517 47.7025 45.4548 47.7412 45.4562 47.78C45.4606 47.8985 45.4628 48.0173 45.4628 48.1365V49.352V50.8293H26.537ZM47.5735 47.2043C47.5525 46.9427 47.5222 46.6828 47.4837 46.4244C47.4776 46.3835 47.4703 46.3429 47.4638 46.3021C47.4488 46.2085 47.4333 46.1152 47.416 46.0222C47.4069 45.9732 47.3969 45.9245 47.3871 45.8756C47.3702 45.7907 47.3526 45.706 47.3338 45.6216C47.3224 45.5707 47.3106 45.5198 47.2986 45.4691C47.279 45.3862 47.2583 45.3036 47.2369 45.2212C47.2239 45.1713 47.2109 45.1215 47.1971 45.0716C47.1736 44.9859 47.1485 44.9007 47.1229 44.8155C47.1094 44.7706 47.0965 44.7256 47.0824 44.6808C47.0508 44.58 47.0173 44.4797 46.9828 44.3796C46.9731 44.3517 46.9643 44.3235 46.9544 44.2955C46.9091 44.1672 46.8615 44.0396 46.8116 43.9128C46.8009 43.8856 46.7892 43.8588 46.7782 43.8316C46.7386 43.7331 46.698 43.6349 46.6556 43.5374C46.6368 43.4941 46.6169 43.4514 46.5976 43.4083C46.5611 43.3271 46.5241 43.2463 46.4857 43.1659C46.4632 43.1189 46.44 43.0722 46.417 43.0255C46.3793 42.9492 46.3407 42.8733 46.3013 42.7978C46.2766 42.7506 46.2518 42.7035 46.2265 42.6566C46.1856 42.5811 46.1438 42.5061 46.1012 42.4314C46.0757 42.3865 46.0504 42.3416 46.0243 42.2971C45.9771 42.2164 45.9282 42.1366 45.8788 42.0569C45.8559 42.0198 45.8335 41.9823 45.8101 41.9455C45.7366 41.8296 45.6612 41.7146 45.5832 41.6009C45.5106 41.495 45.436 41.391 45.3604 41.2879C45.3385 41.2581 45.3161 41.2285 45.294 41.1989C45.2359 41.1213 45.177 41.0446 45.1171 40.9686C45.0956 40.9412 45.0742 40.9135 45.0523 40.8863C44.9729 40.7873 44.8923 40.6894 44.8099 40.5932C44.7992 40.5808 44.7881 40.5687 44.7774 40.5562C44.7048 40.4721 44.6309 40.3892 44.556 40.3074C44.5303 40.2792 44.5044 40.2514 44.4784 40.2235C44.412 40.1523 44.3447 40.082 44.2766 40.0126C44.2542 39.9897 44.2322 39.9666 44.2095 39.944C44.1209 39.8551 44.0309 39.7674 43.9396 39.6815C43.9208 39.6638 43.9015 39.6466 43.8826 39.629C43.808 39.5597 43.7326 39.4916 43.6563 39.4243C43.6274 39.3988 43.5981 39.3734 43.5689 39.3481C43.4929 39.2825 43.4161 39.2179 43.3385 39.1544C43.3173 39.1371 43.2966 39.1194 43.2753 39.1022C43.178 39.0236 43.0794 38.9467 42.9796 38.8713C42.9547 38.8525 42.9293 38.8342 42.9043 38.8157C42.8261 38.7577 42.7474 38.7005 42.6677 38.6445C42.6365 38.6225 42.6052 38.6006 42.5739 38.5789C42.485 38.5176 42.3953 38.4574 42.3047 38.3986C42.2888 38.3883 42.2732 38.3775 42.2573 38.3673C42.1658 38.3086 42.0737 38.2509 41.9805 38.1946C42.0045 38.1718 42.0271 38.1474 42.0508 38.1242C42.1174 38.0598 42.1828 37.9943 42.2472 37.9277C42.2832 37.8905 42.3189 37.8533 42.3542 37.8155C42.4245 37.7403 42.493 37.6636 42.5607 37.586C42.5895 37.553 42.6183 37.5202 42.6466 37.4867C42.7186 37.4015 42.7887 37.3144 42.8575 37.2262C42.88 37.1974 42.9031 37.1691 42.9253 37.14C42.9943 37.0492 43.061 36.9567 43.1266 36.8632C43.5456 36.9248 43.9679 36.9559 44.3888 36.9559C45.8445 36.9559 47.2167 36.5949 48.4236 35.9603C51.737 37.5301 53.8518 40.8328 53.8518 44.5117V47.2043H47.5735Z" fill="#FE4747"/>
</g>
<g opacity="0.5">
<mask id="path-3-outside-1_96_25830" maskUnits="userSpaceOnUse" x="154" y="19.7627" width="55" height="32" fill="black">
<rect fill="white" x="154" y="19.7627" width="55" height="32"/>
<path d="M167.144 50.2027C164.878 50.2027 162.824 49.5894 160.984 48.3627C159.144 47.136 157.691 45.4294 156.624 43.2427C155.584 41.0294 155.064 38.4827 155.064 35.6027C155.064 32.696 155.584 30.1627 156.624 28.0027C157.664 25.816 159.091 24.1227 160.904 22.9227C162.718 21.696 164.771 21.0827 167.064 21.0827C169.384 21.0827 171.451 21.696 173.264 22.9227C175.078 24.1227 176.504 25.816 177.544 28.0027C178.611 30.1894 179.144 32.736 179.144 35.6427C179.144 38.5494 178.611 41.096 177.544 43.2827C176.504 45.4694 175.078 47.176 173.264 48.4027C171.478 49.6027 169.438 50.2027 167.144 50.2027ZM167.104 44.6427C168.278 44.6427 169.291 44.3094 170.144 43.6427C170.998 42.9494 171.651 41.936 172.104 40.6027C172.584 39.2427 172.824 37.5894 172.824 35.6427C172.824 33.6694 172.584 32.016 172.104 30.6827C171.651 29.3494 170.998 28.3494 170.144 27.6827C169.291 26.9894 168.264 26.6427 167.064 26.6427C165.918 26.6427 164.904 26.976 164.024 27.6427C163.171 28.3094 162.518 29.3094 162.064 30.6427C161.611 31.976 161.384 33.6294 161.384 35.6027C161.384 37.576 161.611 39.2294 162.064 40.5627C162.518 41.896 163.171 42.9094 164.024 43.6027C164.904 44.296 165.931 44.6427 167.104 44.6427ZM184.465 39.9627L193.745 21.5227H200.585L191.105 39.9627H184.465ZM184.465 43.4827V39.9627L186.545 38.1627H207.105V43.4827H184.465ZM197.785 49.7627V32.2827H203.945V49.7627H197.785Z"/>
</mask>
<path d="M160.984 48.3627L160.43 49.1947L160.984 48.3627ZM156.624 43.2427L155.719 43.668L155.722 43.6746L155.726 43.6811L156.624 43.2427ZM156.624 28.0027L157.525 28.4365L157.527 28.4322L156.624 28.0027ZM160.904 22.9227L161.456 23.7567L161.465 23.751L160.904 22.9227ZM173.264 22.9227L172.704 23.751L172.713 23.7566L173.264 22.9227ZM177.544 28.0027L176.641 28.4322L176.646 28.4411L177.544 28.0027ZM177.544 43.2827L176.646 42.8442L176.641 42.8532L177.544 43.2827ZM173.264 48.4027L173.822 49.2328L173.825 49.231L173.264 48.4027ZM170.144 43.6427L170.76 44.4307L170.768 44.4248L170.775 44.4188L170.144 43.6427ZM172.104 40.6027L171.161 40.2699L171.158 40.2808L172.104 40.6027ZM172.104 30.6827L171.158 31.0046L171.16 31.013L171.163 31.0214L172.104 30.6827ZM170.144 27.6827L169.514 28.4588L169.521 28.4648L169.529 28.4707L170.144 27.6827ZM164.024 27.6427L163.421 26.8456L163.415 26.8501L163.409 26.8547L164.024 27.6427ZM162.064 30.6427L163.011 30.9646L162.064 30.6427ZM162.064 40.5627L163.011 40.2408L162.064 40.5627ZM164.024 43.6027L163.394 44.3788L163.4 44.3835L163.406 44.3882L164.024 43.6027ZM167.144 49.2027C165.07 49.2027 163.211 48.6449 161.539 47.5306L160.43 49.1947C162.438 50.5338 164.686 51.2027 167.144 51.2027V49.2027ZM161.539 47.5306C159.861 46.412 158.52 44.848 157.523 42.8043L155.726 43.6811C156.862 46.0108 158.428 47.86 160.43 49.1947L161.539 47.5306ZM157.529 42.8174C156.562 40.7587 156.064 38.3616 156.064 35.6027H154.064C154.064 38.6038 154.607 41.3 155.719 43.668L157.529 42.8174ZM156.064 35.6027C156.064 32.8148 156.563 30.4355 157.525 28.4365L155.723 27.5689C154.606 29.8899 154.064 32.5772 154.064 35.6027H156.064ZM157.527 28.4322C158.498 26.3906 159.811 24.8452 161.456 23.7566L160.353 22.0888C158.371 23.4002 156.83 25.2415 155.721 27.5732L157.527 28.4322ZM161.465 23.751C163.104 22.6417 164.961 22.0827 167.064 22.0827V20.0827C164.581 20.0827 162.331 20.7503 160.344 22.0944L161.465 23.751ZM167.064 22.0827C169.197 22.0827 171.066 22.6431 172.704 23.751L173.825 22.0944C171.836 20.749 169.572 20.0827 167.064 20.0827V22.0827ZM172.713 23.7566C174.357 24.8452 175.67 26.3906 176.641 28.4322L178.447 27.5732C177.338 25.2415 175.798 23.4002 173.816 22.0888L172.713 23.7566ZM176.646 28.4411C177.634 30.4672 178.144 32.8587 178.144 35.6427H180.144C180.144 32.6134 179.588 29.9116 178.443 27.5643L176.646 28.4411ZM178.144 35.6427C178.144 38.4267 177.634 40.8182 176.646 42.8443L178.443 43.7211C179.588 41.3738 180.144 38.672 180.144 35.6427H178.144ZM176.641 42.8532C175.67 44.8963 174.354 46.4581 172.704 47.5744L173.825 49.231C175.801 47.894 177.339 46.0424 178.447 43.7122L176.641 42.8532ZM172.707 47.5726C171.096 48.6544 169.253 49.2027 167.144 49.2027V51.2027C169.623 51.2027 171.859 50.551 173.822 49.2328L172.707 47.5726ZM167.104 45.6427C168.481 45.6427 169.716 45.2465 170.76 44.4307L169.529 42.8547C168.866 43.3722 168.074 43.6427 167.104 43.6427V45.6427ZM170.775 44.4188C171.81 43.5777 172.554 42.3867 173.051 40.9246L171.158 40.2808C170.748 41.4854 170.185 42.321 169.514 42.8666L170.775 44.4188ZM173.047 40.9355C173.576 39.4385 173.824 37.6657 173.824 35.6427H171.824C171.824 37.513 171.593 39.0469 171.161 40.2699L173.047 40.9355ZM173.824 35.6427C173.824 33.5958 173.576 31.8194 173.045 30.344L171.163 31.0214C171.592 32.2126 171.824 33.7429 171.824 35.6427H173.824ZM173.051 30.3608C172.554 28.8978 171.807 27.7124 170.76 26.8947L169.529 28.4707C170.189 28.9864 170.748 29.8009 171.158 31.0046L173.051 30.3608ZM170.775 26.9066C169.727 26.0549 168.472 25.6427 167.064 25.6427V27.6427C168.057 27.6427 168.855 27.9238 169.514 28.4588L170.775 26.9066ZM167.064 25.6427C165.709 25.6427 164.481 26.0419 163.421 26.8456L164.628 28.4398C165.327 27.9101 166.127 27.6427 167.064 27.6427V25.6427ZM163.409 26.8547C162.362 27.6724 161.615 28.8578 161.118 30.3208L163.011 30.9646C163.42 29.7609 163.98 28.9464 164.64 28.4307L163.409 26.8547ZM161.118 30.3208C160.618 31.7902 160.384 33.5603 160.384 35.6027H162.384C162.384 33.6984 162.604 32.1619 163.011 30.9646L161.118 30.3208ZM160.384 35.6027C160.384 37.6451 160.618 39.4152 161.118 40.8846L163.011 40.2408C162.604 39.0435 162.384 37.507 162.384 35.6027H160.384ZM161.118 40.8846C161.615 42.3466 162.359 43.5377 163.394 44.3788L164.655 42.8266C163.983 42.281 163.421 41.4454 163.011 40.2408L161.118 40.8846ZM163.406 44.3882C164.471 45.2274 165.718 45.6427 167.104 45.6427V43.6427C166.144 43.6427 165.338 43.3647 164.643 42.8172L163.406 44.3882ZM184.465 39.9627L183.572 39.5132L182.842 40.9627H184.465V39.9627ZM193.745 21.5227V20.5227H193.129L192.852 21.0732L193.745 21.5227ZM200.585 21.5227L201.474 21.9799L202.224 20.5227H200.585V21.5227ZM191.105 39.9627V40.9627H191.715L191.994 40.4199L191.105 39.9627ZM184.465 43.4827H183.465V44.4827H184.465V43.4827ZM184.465 39.9627L183.811 39.2065L183.465 39.5056V39.9627H184.465ZM186.545 38.1627V37.1627H186.172L185.891 37.4065L186.545 38.1627ZM207.105 38.1627H208.105V37.1627H207.105V38.1627ZM207.105 43.4827V44.4827H208.105V43.4827H207.105ZM197.785 49.7627H196.785V50.7627H197.785V49.7627ZM197.785 32.2827V31.2827H196.785V32.2827H197.785ZM203.945 32.2827H204.945V31.2827H203.945V32.2827ZM203.945 49.7627V50.7627H204.945V49.7627H203.945ZM185.358 40.4122L194.638 21.9722L192.852 21.0732L183.572 39.5132L185.358 40.4122ZM193.745 22.5227H200.585V20.5227H193.745V22.5227ZM199.696 21.0655L190.216 39.5055L191.994 40.4199L201.474 21.9799L199.696 21.0655ZM191.105 38.9627H184.465V40.9627H191.105V38.9627ZM185.465 43.4827V39.9627H183.465V43.4827H185.465ZM185.119 40.7189L187.199 38.9189L185.891 37.4065L183.811 39.2065L185.119 40.7189ZM186.545 39.1627H207.105V37.1627H186.545V39.1627ZM206.105 38.1627V43.4827H208.105V38.1627H206.105ZM207.105 42.4827H184.465V44.4827H207.105V42.4827ZM198.785 49.7627V32.2827H196.785V49.7627H198.785ZM197.785 33.2827H203.945V31.2827H197.785V33.2827ZM202.945 32.2827V49.7627H204.945V32.2827H202.945ZM203.945 48.7627H197.785V50.7627H203.945V48.7627Z" fill="#717171" mask="url(#path-3-outside-1_96_25830)"/>
</g>
<defs>
<clipPath id="clip0_96_25830">
<rect width="40" height="40" fill="white" transform="translate(16 16.2627)"/>
</clipPath>
</defs>
</svg>
