<svg width="20" height="20" viewBox="0 0 20 20" fill="none" xmlns="http://www.w3.org/2000/svg">
<path d="M17.5007 7.40875C17.5007 6.81249 17.0173 6.32918 16.4211 6.32918C15.8249 6.32918 15.3416 6.81249 15.3416 7.40875C15.3433 7.4526 15.3477 7.49633 15.3548 7.5397L12.2196 9.1073L10.1572 6.1609C10.6625 5.84429 10.8153 5.17809 10.4987 4.67291C10.1822 4.16761 9.51598 4.01467 9.01068 4.33129C8.5055 4.6479 8.35257 5.31411 8.66918 5.81929C8.7558 5.95748 8.87249 6.07429 9.01068 6.1609L6.94841 9.1073L3.8132 7.5397C3.8202 7.49633 3.82467 7.4526 3.82636 7.40875C3.82926 6.81249 3.34824 6.32688 2.7521 6.32398C2.15596 6.32108 1.67023 6.80198 1.66733 7.39824C1.66467 7.94558 2.07201 8.40824 2.61524 8.47504L3.82649 13.9261V15.3254C3.82649 15.5241 3.98751 15.6853 4.18622 15.6853H14.9818C15.1805 15.6853 15.3416 15.5241 15.3416 15.3254V13.9261L16.5527 8.47492C17.0925 8.40969 17.4991 7.95247 17.5007 7.40875ZM16.4211 7.04889C16.6199 7.04889 16.7809 7.21004 16.7809 7.40875C16.7809 7.60759 16.6199 7.76861 16.4211 7.76861C16.2224 7.76861 16.0612 7.60759 16.0612 7.40875C16.0613 7.21004 16.2224 7.04902 16.4211 7.04889ZM9.58399 4.88986C9.78271 4.88986 9.94385 5.05088 9.94385 5.24972C9.94385 5.44843 9.78271 5.60958 9.58399 5.60958C9.38528 5.60958 9.22413 5.44843 9.22413 5.24972C9.22425 5.05101 9.38528 4.88998 9.58399 4.88986ZM7.35985 9.77411L9.58399 6.59699L11.8081 9.77411C11.9103 9.9204 12.1043 9.96956 12.2639 9.88972L15.6739 8.18489C15.7277 8.2361 15.7865 8.28177 15.8496 8.3209L14.6932 13.5262H4.47481L3.31841 8.3209C3.38146 8.28164 3.44029 8.2361 3.49405 8.18489L6.90407 9.88972C7.06365 9.96932 7.25753 9.92016 7.35985 9.77411ZM2.38705 7.40875C2.38705 7.21004 2.54807 7.04889 2.74691 7.04889C2.94562 7.04889 3.10677 7.21004 3.10677 7.40875C3.10677 7.60759 2.94562 7.76861 2.74691 7.76861C2.54819 7.76849 2.38717 7.60747 2.38705 7.40875ZM14.6219 14.9656H4.54608V14.2458H14.6219V14.9656Z" fill="#B0B0B0"/>
<path fill-rule="evenodd" clip-rule="evenodd" d="M8.90006 4.15475C9.50285 3.77705 10.2976 3.95947 10.6752 4.56232C11.0134 5.10194 10.9026 5.79557 10.443 6.20593L12.2872 8.84058L15.1335 7.41744C15.1335 7.41722 15.1335 7.41765 15.1335 7.41744L15.1331 7.40875C15.1331 6.69745 15.7099 6.12084 16.4211 6.12084C17.1324 6.12084 17.709 6.69743 17.709 7.40875C17.7073 8.00678 17.295 8.51771 16.7262 8.65499L15.5499 13.9489V15.3254C15.5499 15.6392 15.2955 15.8936 14.9818 15.8936H4.18622C3.87236 15.8936 3.61815 15.6391 3.61815 15.3254V13.949L2.44178 8.65485C1.86918 8.51571 1.45608 7.99944 1.459 7.39723C1.46246 6.68589 2.04193 6.11219 2.75312 6.11565C3.4643 6.11911 4.03815 6.69843 4.0347 7.40977L4.03466 7.41679C4.03465 7.41701 4.03467 7.41657 4.03466 7.41679L6.8808 8.84058L8.72501 6.20573C8.63527 6.12536 8.55699 6.03258 8.49265 5.92992C8.11493 5.32723 8.29741 4.53245 8.90006 4.15475ZM9.1213 4.50783C8.71361 4.76335 8.59022 5.30099 8.84571 5.70865C8.91566 5.82025 9.00984 5.91451 9.12132 5.98438L9.30705 6.10079L7.01601 9.37403L3.58312 7.65758L3.60753 7.50647C3.61306 7.47227 3.61659 7.43813 3.61804 7.40422C3.61848 6.92464 3.23101 6.53465 2.75109 6.53231C2.26999 6.52997 1.878 6.91807 1.87566 7.39926C1.87352 7.84097 2.20224 8.21435 2.64067 8.26827L2.7867 8.28623L4.03482 13.9032V15.3254C4.03482 15.4092 4.10266 15.4769 4.18622 15.4769H14.9818C15.0654 15.4769 15.1333 15.4091 15.1333 15.3254V13.9032L16.3814 8.28579L16.5277 8.26809C16.9629 8.2155 17.2908 7.84696 17.2923 7.40866C17.2923 6.9275 16.9022 6.53751 16.4211 6.53751C15.9414 6.53751 15.5521 6.92536 15.55 7.40472C15.5514 7.4388 15.5549 7.47258 15.5604 7.50591L15.5853 7.65739L12.152 9.37403L9.86079 6.10077L10.0466 5.98436C10.4543 5.72886 10.5777 5.19124 10.3221 4.78354C10.0668 4.37579 9.52911 4.2523 9.1213 4.50783ZM9.58399 4.68153C9.89772 4.68153 10.1522 4.93578 10.1522 5.24972C10.1522 5.56349 9.89776 5.81791 9.58399 5.81791C9.27022 5.81791 9.0158 5.56349 9.0158 5.24972C9.01599 4.93604 9.27032 4.68172 9.58399 4.68153ZM9.58405 5.09819C9.66773 5.09823 9.73552 5.16601 9.73552 5.24972L9.58405 5.09819ZM9.58405 5.09819C9.50036 5.09831 9.43252 5.16614 9.43246 5.24985C9.43246 5.3335 9.50034 5.40125 9.58399 5.40125C9.66765 5.40125 9.73552 5.33337 9.73552 5.24972M9.58399 6.23371L11.9788 9.65464C12.0218 9.71613 12.1035 9.73703 12.1707 9.70341L15.7117 7.93309L15.8176 8.03406C15.8612 8.07557 15.9087 8.11242 15.9594 8.1439L16.085 8.22183L14.8603 13.7346H4.30768L3.08303 8.22204L3.20829 8.14405C3.25933 8.11227 3.3069 8.07545 3.35034 8.03406L3.4563 7.93309L6.99707 9.70329C7.06436 9.73686 7.14611 9.7161 7.18922 9.65457L9.58399 6.23371ZM9.58399 6.96026L7.53052 9.89359C7.36899 10.1242 7.06294 10.2018 6.81107 10.0761L3.56076 8.45115L4.64194 13.3179H14.526L15.6072 8.45115L12.3571 10.076C12.3571 10.076 12.3572 10.076 12.3571 10.076C12.1052 10.2021 11.7988 10.1245 11.6374 9.89342L9.58399 6.96026ZM16.4211 6.84056C16.735 6.84056 16.9893 7.09503 16.9893 7.40875C16.9893 7.72265 16.735 7.97695 16.4211 7.97695C16.1073 7.97695 15.8529 7.72269 15.8529 7.40875C15.8531 7.09508 16.1074 6.84075 16.4211 6.84056ZM2.74691 7.25723C2.66318 7.25723 2.59538 7.32505 2.59538 7.40875C2.59543 7.49251 2.66328 7.56023 2.74703 7.56028C2.83073 7.56028 2.89843 7.49248 2.89843 7.40875C2.89843 7.3251 2.83056 7.25723 2.74691 7.25723ZM2.17872 7.40875C2.17872 7.09503 2.43297 6.84056 2.74691 6.84056C3.06068 6.84056 3.3151 7.09498 3.3151 7.40875C3.3151 7.72269 3.06064 7.97695 2.74691 7.97695C2.43323 7.97676 2.17891 7.72243 2.17872 7.40875ZM16.4211 7.25723C16.3374 7.25735 16.2697 7.3251 16.2695 7.40875C16.2695 7.49248 16.3374 7.56028 16.4211 7.56028C16.5048 7.56028 16.5726 7.49253 16.5726 7.40875C16.5726 7.32505 16.5048 7.25723 16.4211 7.25723ZM4.33775 14.0375H14.8302V15.1739H4.33775V14.0375ZM4.75442 14.4542V14.7572H14.4136V14.4542H4.75442Z" fill="#B0B0B0"/>
</svg>
