<svg width="64" height="64" viewBox="0 0 64 64" fill="none" xmlns="http://www.w3.org/2000/svg">
<rect width="64" height="64" rx="7.11111" fill="#8700F2" fill-opacity="0.08"/>
<path d="M39.5638 36.8591C39.5638 39.0244 38.8103 40.867 37.3035 42.3869C35.7967 43.9068 33.9625 44.6668 31.801 44.6668C29.6395 44.6668 27.8031 43.9068 26.292 42.3869C24.7809 40.867 24.0254 39.0244 24.0254 36.8591V24.8719C24.0254 23.3335 24.5596 22.0258 25.6279 20.9489C26.6963 19.872 27.9997 19.3335 29.5382 19.3335C31.0766 19.3335 32.38 19.872 33.4484 20.9489C34.5168 22.0258 35.051 23.3335 35.051 24.8719V36.2181C35.051 37.1206 34.7366 37.8911 34.1079 38.5296C33.4792 39.168 32.713 39.4873 31.8092 39.4873C30.9054 39.4873 30.1343 39.1703 29.4959 38.5362C28.8574 37.9022 28.5382 37.1295 28.5382 36.2181V25.513C28.5382 25.2296 28.6341 24.9921 28.8258 24.8005C29.0176 24.6088 29.2552 24.513 29.5386 24.513C29.8221 24.513 30.0595 24.6088 30.251 24.8005C30.4424 24.9921 30.5382 25.2296 30.5382 25.513V36.2181C30.5382 36.5753 30.6582 36.8762 30.8984 37.1207C31.1386 37.3651 31.4373 37.4873 31.7946 37.4873C32.1518 37.4873 32.4506 37.3651 32.6907 37.1207C32.9309 36.8762 33.051 36.5753 33.051 36.2181V24.8591C33.0373 23.8745 32.6954 23.0407 32.0251 22.3578C31.3549 21.6749 30.5259 21.3335 29.5382 21.3335C28.5546 21.3335 27.7232 21.6771 27.0441 22.3642C26.3649 23.0514 26.0253 23.8873 26.0253 24.8719V36.8591C26.0117 38.4711 26.5689 39.842 27.6971 40.9719C28.8253 42.1018 30.1948 42.6668 31.8056 42.6668C33.3937 42.6668 34.7436 42.1018 35.8553 40.9719C36.967 39.842 37.5365 38.4711 37.5638 36.8591V25.513C37.5638 25.2296 37.6597 24.9921 37.8514 24.8005C38.0432 24.6088 38.2808 24.513 38.5642 24.513C38.8477 24.513 39.0851 24.6088 39.2766 24.8005C39.468 24.9921 39.5638 25.2296 39.5638 25.513V36.8591Z" fill="#8700F2"/>
</svg>
