<svg width="106" height="31" viewBox="0 0 106 31" fill="none" xmlns="http://www.w3.org/2000/svg">
<path d="M0 2.5C0 1.39543 0.895431 0.5 2 0.5H104C105.105 0.5 106 1.39543 106 2.5V28.5C106 29.6046 105.105 30.5 104 30.5H2C0.895429 30.5 0 29.6046 0 28.5V2.5Z" fill="#039F8D"/>
<path d="M22.0003 13.4276C22.0003 12.9506 21.6137 12.5639 21.1367 12.5639C20.6598 12.5639 20.2731 12.9506 20.2731 13.4276C20.2745 13.4627 20.2779 13.4977 20.2836 13.5323L17.7755 14.7864L16.1255 12.4293C16.5298 12.176 16.652 11.6431 16.3987 11.2389C16.1456 10.8347 15.6126 10.7123 15.2083 10.9656C14.8042 11.2189 14.6819 11.7519 14.9352 12.156C15.0044 12.2666 15.0978 12.36 15.2083 12.4293L13.5585 14.7864L11.0504 13.5323C11.056 13.4977 11.0595 13.4627 11.0609 13.4276C11.0632 12.9506 10.6784 12.5621 10.2015 12.5598C9.72457 12.5575 9.33599 12.9422 9.33367 13.4192C9.33154 13.8571 9.65741 14.2272 10.092 14.2806L11.061 18.6415V19.7609C11.061 19.9199 11.1898 20.0488 11.3488 20.0488H19.9852C20.1442 20.0488 20.2731 19.9199 20.2731 19.7609V18.6415L21.242 14.2805C21.6738 14.2283 21.9991 13.8626 22.0003 13.4276ZM21.1367 13.1397C21.2957 13.1397 21.4246 13.2686 21.4246 13.4276C21.4246 13.5867 21.2957 13.7155 21.1367 13.7155C20.9777 13.7155 20.8488 13.5867 20.8488 13.4276C20.8489 13.2686 20.9777 13.1398 21.1367 13.1397ZM15.667 11.4125C15.826 11.4125 15.9549 11.5413 15.9549 11.7004C15.9549 11.8593 15.826 11.9882 15.667 11.9882C15.508 11.9882 15.3791 11.8593 15.3791 11.7004C15.3792 11.5414 15.508 11.4126 15.667 11.4125ZM13.8877 15.3199L15.667 12.7782L17.4463 15.3199C17.5281 15.4369 17.6833 15.4762 17.8109 15.4124L20.539 14.0485C20.582 14.0895 20.629 14.126 20.6795 14.1573L19.7543 18.3216H11.5797L10.6545 14.1573C10.705 14.1259 10.752 14.0895 10.795 14.0485L13.5231 15.4124C13.6507 15.476 13.8058 15.4367 13.8877 15.3199ZM9.90944 13.4276C9.90944 13.2686 10.0383 13.1397 10.1973 13.1397C10.3563 13.1397 10.4852 13.2686 10.4852 13.4276C10.4852 13.5867 10.3563 13.7155 10.1973 13.7155C10.0384 13.7154 9.90954 13.5866 9.90944 13.4276ZM19.6973 19.473H11.6367V18.8973H19.6973V19.473Z" fill="#EAF9F7"/>
<path fill-rule="evenodd" clip-rule="evenodd" d="M15.1199 10.8244C15.6021 10.5222 16.2379 10.6682 16.54 11.1504C16.8105 11.5821 16.7219 12.137 16.3542 12.4653L17.8295 14.573L20.1066 13.4345C20.1066 13.4344 20.1066 13.4347 20.1066 13.4345L20.1063 13.4276C20.1063 12.8585 20.5677 12.3973 21.1367 12.3973C21.7057 12.3973 22.167 12.8585 22.167 13.4276C22.1656 13.906 21.8358 14.3148 21.3807 14.4246L20.4398 18.6597V19.7609C20.4398 20.0119 20.2362 20.2155 19.9852 20.2155H11.3488C11.0977 20.2155 10.8943 20.0119 10.8943 19.7609V18.6597L9.95323 14.4245C9.49515 14.3132 9.16467 13.9001 9.167 13.4184C9.16977 12.8493 9.63335 12.3903 10.2023 12.3931C10.7712 12.3959 11.2303 12.8593 11.2276 13.4284L11.2275 13.434C11.2275 13.4342 11.2275 13.4338 11.2275 13.434L13.5044 14.573L14.9798 12.4652C14.908 12.4009 14.8454 12.3266 14.7939 12.2445C14.4917 11.7624 14.6377 11.1265 15.1199 10.8244ZM15.2968 11.1068C14.9707 11.3113 14.872 11.7414 15.0764 12.0675C15.1323 12.1568 15.2077 12.2322 15.2969 12.2881L15.4454 12.3812L13.6126 14.9998L10.8663 13.6267L10.8858 13.5058C10.8903 13.4784 10.8931 13.4511 10.8942 13.424C10.8946 13.0403 10.5846 12.7283 10.2007 12.7264C9.8158 12.7246 9.50221 13.035 9.50033 13.42C9.49862 13.7734 9.76159 14.0721 10.1123 14.1152L10.2292 14.1296L11.2277 18.6232V19.7609C11.2277 19.8279 11.2819 19.8821 11.3488 19.8821H19.9852C20.0521 19.8821 20.1064 19.8278 20.1064 19.7609V18.6232L21.1049 14.1292L21.222 14.1151C21.5702 14.073 21.8324 13.7782 21.8337 13.4275C21.8336 13.0426 21.5216 12.7306 21.1367 12.7306C20.7529 12.7306 20.4415 13.0409 20.4398 13.4244C20.4409 13.4516 20.4437 13.4787 20.4481 13.5053L20.468 13.6265L17.7214 14.9998L15.8884 12.3812L16.0371 12.2881C16.3633 12.0837 16.4619 11.6536 16.2575 11.3274C16.0532 11.0012 15.6231 10.9024 15.2968 11.1068ZM15.667 11.2458C15.918 11.2458 16.1216 11.4492 16.1216 11.7004C16.1216 11.9514 15.918 12.1549 15.667 12.1549C15.416 12.1549 15.2124 11.9514 15.2124 11.7004C15.2126 11.4494 15.4161 11.246 15.667 11.2458ZM15.667 11.5791C15.734 11.5792 15.7882 11.6334 15.7882 11.7004L15.667 11.5791ZM15.667 11.5791C15.6001 11.5792 15.5458 11.6335 15.5458 11.7005C15.5458 11.7674 15.6001 11.8216 15.667 11.8216C15.7339 11.8216 15.7882 11.7673 15.7882 11.7004M15.667 12.4876L17.5828 15.2243C17.6172 15.2735 17.6826 15.2902 17.7364 15.2633L20.5692 13.8471L20.6539 13.9278C20.6888 13.961 20.7268 13.9905 20.7674 14.0157L20.8678 14.078L19.888 18.4882H11.446L10.4662 14.0782L10.5664 14.0158C10.6073 13.9904 10.6453 13.9609 10.6801 13.9278L10.7648 13.8471L13.5975 15.2632C13.6513 15.2901 13.7167 15.2735 13.7512 15.2242L15.667 12.4876ZM15.667 13.0688L14.0242 15.4155C13.895 15.5999 13.6502 15.662 13.4487 15.5615L10.8484 14.2615L11.7134 18.1549H19.6206L20.4856 14.2615L17.8855 15.5614C17.8855 15.5614 17.8855 15.5614 17.8855 15.5614C17.684 15.6622 17.4388 15.6002 17.3097 15.4153L15.667 13.0688ZM21.1367 12.973C21.3878 12.973 21.5912 13.1766 21.5912 13.4276C21.5912 13.6787 21.3878 13.8821 21.1367 13.8821C20.8857 13.8821 20.6821 13.6787 20.6821 13.4276C20.6823 13.1766 20.8857 12.9732 21.1367 12.973ZM10.1973 13.3064C10.1303 13.3064 10.0761 13.3606 10.0761 13.4276C10.0762 13.4946 10.1304 13.5488 10.1974 13.5488C10.2644 13.5488 10.3186 13.4946 10.3186 13.4276C10.3186 13.3607 10.2643 13.3064 10.1973 13.3064ZM9.74278 13.4276C9.74278 13.1766 9.94618 12.973 10.1973 12.973C10.4483 12.973 10.6519 13.1766 10.6519 13.4276C10.6519 13.6787 10.4483 13.8821 10.1973 13.8821C9.94639 13.882 9.74293 13.6785 9.74278 13.4276ZM21.1367 13.3064C21.0697 13.3065 21.0155 13.3607 21.0154 13.4276C21.0154 13.4946 21.0697 13.5488 21.1367 13.5488C21.2037 13.5488 21.2579 13.4946 21.2579 13.4276C21.2579 13.3606 21.2036 13.3064 21.1367 13.3064ZM11.47 18.7306H19.864V19.6397H11.47V18.7306ZM11.8033 19.0639V19.3064H19.5307V19.0639H11.8033Z" fill="#EAF9F7"/>
<path d="M31.9651 20.64C31.1998 20.64 30.5464 20.5 30.0051 20.22C29.4638 19.94 28.9831 19.534 28.5631 19.002L29.4591 18.106C29.7671 18.5353 30.1218 18.862 30.5231 19.086C30.9244 19.3007 31.4191 19.408 32.0071 19.408C32.5858 19.408 33.0478 19.282 33.3931 19.03C33.7478 18.778 33.9251 18.4327 33.9251 17.994C33.9251 17.63 33.8411 17.336 33.6731 17.112C33.5051 16.888 33.2764 16.706 32.9871 16.566C32.7071 16.4167 32.3991 16.286 32.0631 16.174C31.7271 16.0527 31.3911 15.9267 31.0551 15.796C30.7191 15.656 30.4111 15.488 30.1311 15.292C29.8511 15.0867 29.6224 14.8207 29.4451 14.494C29.2771 14.1673 29.1931 13.7567 29.1931 13.262C29.1931 12.7113 29.3238 12.2447 29.5851 11.862C29.8558 11.47 30.2198 11.1713 30.6771 10.966C31.1438 10.7513 31.6664 10.644 32.2451 10.644C32.8798 10.644 33.4491 10.77 33.9531 11.022C34.4571 11.2647 34.8678 11.5867 35.1851 11.988L34.2891 12.884C33.9998 12.548 33.6871 12.296 33.3511 12.128C33.0244 11.96 32.6464 11.876 32.2171 11.876C31.6944 11.876 31.2791 11.9927 30.9711 12.226C30.6631 12.45 30.5091 12.7673 30.5091 13.178C30.5091 13.5047 30.5931 13.7707 30.7611 13.976C30.9384 14.172 31.1671 14.34 31.4471 14.48C31.7271 14.62 32.0351 14.7507 32.3711 14.872C32.7164 14.984 33.0571 15.11 33.3931 15.25C33.7291 15.39 34.0371 15.5673 34.3171 15.782C34.5971 15.9967 34.8211 16.2767 34.9891 16.622C35.1665 16.958 35.2551 17.3827 35.2551 17.896C35.2551 18.7547 34.9564 19.4267 34.3591 19.912C33.7711 20.3973 32.9731 20.64 31.9651 20.64ZM39.6187 20.64C39.0774 20.64 38.5874 20.5187 38.1487 20.276C37.7194 20.024 37.3834 19.6787 37.1407 19.24C36.8981 18.8013 36.7767 18.2927 36.7767 17.714V13.85H38.0367V17.658C38.0367 18.022 38.0974 18.3393 38.2187 18.61C38.3494 18.8713 38.5361 19.072 38.7787 19.212C39.0214 19.352 39.3061 19.422 39.6327 19.422C40.1274 19.422 40.5147 19.268 40.7947 18.96C41.0747 18.6427 41.2147 18.2087 41.2147 17.658V13.85H42.4747V17.714C42.4747 18.2927 42.3534 18.8013 42.1107 19.24C41.8681 19.6787 41.5321 20.024 41.1027 20.276C40.6827 20.5187 40.1881 20.64 39.6187 20.64ZM47.8035 20.64C47.2995 20.64 46.8422 20.5373 46.4315 20.332C46.0302 20.1173 45.7082 19.8233 45.4655 19.45C45.2228 19.0767 45.0875 18.652 45.0595 18.176V16.174C45.0875 15.6887 45.2228 15.264 45.4655 14.9C45.7175 14.5267 46.0442 14.2373 46.4455 14.032C46.8562 13.8173 47.3088 13.71 47.8035 13.71C48.4102 13.71 48.9562 13.864 49.4415 14.172C49.9362 14.48 50.3235 14.8953 50.6035 15.418C50.8835 15.9407 51.0235 16.5287 51.0235 17.182C51.0235 17.8353 50.8835 18.4233 50.6035 18.946C50.3235 19.4687 49.9362 19.884 49.4415 20.192C48.9562 20.4907 48.4102 20.64 47.8035 20.64ZM47.5935 19.45C48.0135 19.45 48.3822 19.352 48.6995 19.156C49.0168 18.96 49.2688 18.694 49.4555 18.358C49.6422 18.0127 49.7355 17.616 49.7355 17.168C49.7355 16.7293 49.6422 16.3373 49.4555 15.992C49.2688 15.6467 49.0168 15.3807 48.6995 15.194C48.3822 14.998 48.0182 14.9 47.6075 14.9C47.1875 14.9 46.8188 14.998 46.5015 15.194C46.1842 15.3807 45.9368 15.6467 45.7595 15.992C45.5822 16.3373 45.4935 16.734 45.4935 17.182C45.4935 17.6207 45.5775 18.0127 45.7455 18.358C45.9228 18.694 46.1702 18.96 46.4875 19.156C46.8142 19.352 47.1828 19.45 47.5935 19.45ZM44.3035 20.5V10.504H45.5635V15.474L45.3255 17.084L45.5635 18.708V20.5H44.3035ZM54.7059 20.64C54.3326 20.64 53.9779 20.5933 53.6419 20.5C53.3153 20.3973 53.0119 20.2573 52.7319 20.08C52.4519 19.8933 52.2093 19.674 52.0039 19.422L52.8159 18.61C53.0586 18.9087 53.3386 19.1327 53.6559 19.282C53.9733 19.422 54.3279 19.492 54.7199 19.492C55.1119 19.492 55.4153 19.4267 55.6299 19.296C55.8446 19.156 55.9519 18.9647 55.9519 18.722C55.9519 18.4793 55.8633 18.2927 55.6859 18.162C55.5179 18.022 55.2986 17.91 55.0279 17.826C54.7573 17.7327 54.4679 17.644 54.1599 17.56C53.8613 17.4667 53.5766 17.35 53.3059 17.21C53.0353 17.07 52.8113 16.8787 52.6339 16.636C52.4659 16.3933 52.3819 16.0713 52.3819 15.67C52.3819 15.2687 52.4799 14.9233 52.6759 14.634C52.8719 14.3353 53.1426 14.1067 53.4879 13.948C53.8426 13.7893 54.2673 13.71 54.7619 13.71C55.2846 13.71 55.7466 13.8033 56.1479 13.99C56.5586 14.1673 56.8946 14.438 57.1559 14.802L56.3439 15.614C56.1573 15.3713 55.9239 15.1847 55.6439 15.054C55.3733 14.9233 55.0653 14.858 54.7199 14.858C54.3559 14.858 54.0759 14.9233 53.8799 15.054C53.6933 15.1753 53.5999 15.348 53.5999 15.572C53.5999 15.796 53.6839 15.9687 53.8519 16.09C54.0199 16.2113 54.2393 16.314 54.5099 16.398C54.7899 16.482 55.0793 16.5707 55.3779 16.664C55.6766 16.748 55.9613 16.8647 56.2319 17.014C56.5026 17.1633 56.7219 17.364 56.8899 17.616C57.0673 17.868 57.1559 18.1993 57.1559 18.61C57.1559 19.2353 56.9319 19.73 56.4839 20.094C56.0453 20.458 55.4526 20.64 54.7059 20.64ZM61.7445 20.64C61.0912 20.64 60.4985 20.486 59.9665 20.178C59.4439 19.87 59.0285 19.4547 58.7205 18.932C58.4219 18.4 58.2725 17.812 58.2725 17.168C58.2725 16.5147 58.4219 15.9267 58.7205 15.404C59.0285 14.8813 59.4439 14.4707 59.9665 14.172C60.4985 13.864 61.0912 13.71 61.7445 13.71C62.2579 13.71 62.7339 13.808 63.1725 14.004C63.6112 14.1907 63.9892 14.466 64.3065 14.83L63.4665 15.67C63.2612 15.4273 63.0092 15.2453 62.7105 15.124C62.4212 14.9933 62.0992 14.928 61.7445 14.928C61.3245 14.928 60.9512 15.026 60.6245 15.222C60.2979 15.4087 60.0412 15.67 59.8545 16.006C59.6679 16.342 59.5745 16.7293 59.5745 17.168C59.5745 17.6067 59.6679 17.994 59.8545 18.33C60.0412 18.666 60.2979 18.932 60.6245 19.128C60.9512 19.324 61.3245 19.422 61.7445 19.422C62.0992 19.422 62.4212 19.3613 62.7105 19.24C63.0092 19.1093 63.2659 18.9227 63.4805 18.68L64.3065 19.52C63.9985 19.8747 63.6205 20.15 63.1725 20.346C62.7339 20.542 62.2579 20.64 61.7445 20.64ZM65.6961 20.5V13.85H66.9561V20.5H65.6961ZM66.9561 16.706L66.4801 16.496C66.4801 15.6467 66.6761 14.97 67.0681 14.466C67.4601 13.962 68.0248 13.71 68.7621 13.71C69.0981 13.71 69.4015 13.7707 69.6721 13.892C69.9428 14.004 70.1948 14.1953 70.4281 14.466L69.6021 15.32C69.4621 15.1707 69.3081 15.0633 69.1401 14.998C68.9721 14.9327 68.7761 14.9 68.5521 14.9C68.0855 14.9 67.7028 15.0493 67.4041 15.348C67.1055 15.6467 66.9561 16.0993 66.9561 16.706ZM71.4693 20.5V13.85H72.7293V20.5H71.4693ZM72.0993 12.52C71.866 12.52 71.6746 12.4453 71.5253 12.296C71.376 12.1373 71.3013 11.9413 71.3013 11.708C71.3013 11.484 71.376 11.2973 71.5253 11.148C71.6746 10.9893 71.866 10.91 72.0993 10.91C72.3326 10.91 72.524 10.9893 72.6733 11.148C72.8226 11.2973 72.8973 11.484 72.8973 11.708C72.8973 11.9413 72.8226 12.1373 72.6733 12.296C72.524 12.4453 72.3326 12.52 72.0993 12.52ZM78.2261 20.64C77.7221 20.64 77.2648 20.5373 76.8541 20.332C76.4528 20.1173 76.1308 19.8233 75.8881 19.45C75.6455 19.0767 75.5101 18.652 75.4821 18.176V16.174C75.5101 15.6887 75.6455 15.264 75.8881 14.9C76.1401 14.5267 76.4668 14.2373 76.8681 14.032C77.2788 13.8173 77.7315 13.71 78.2261 13.71C78.8328 13.71 79.3788 13.864 79.8641 14.172C80.3588 14.48 80.7461 14.8953 81.0261 15.418C81.3061 15.9407 81.4461 16.5287 81.4461 17.182C81.4461 17.8353 81.3061 18.4233 81.0261 18.946C80.7461 19.4687 80.3588 19.884 79.8641 20.192C79.3788 20.4907 78.8328 20.64 78.2261 20.64ZM78.0161 19.45C78.4361 19.45 78.8048 19.352 79.1221 19.156C79.4395 18.96 79.6915 18.694 79.8781 18.358C80.0648 18.0127 80.1581 17.616 80.1581 17.168C80.1581 16.7293 80.0648 16.3373 79.8781 15.992C79.6915 15.6467 79.4395 15.3807 79.1221 15.194C78.8048 14.998 78.4408 14.9 78.0301 14.9C77.6101 14.9 77.2415 14.998 76.9241 15.194C76.6068 15.3807 76.3595 15.6467 76.1821 15.992C76.0048 16.3373 75.9161 16.734 75.9161 17.182C75.9161 17.6207 76.0001 18.0127 76.1681 18.358C76.3455 18.694 76.5928 18.96 76.9101 19.156C77.2368 19.352 77.6055 19.45 78.0161 19.45ZM74.7261 20.5V10.504H75.9861V15.474L75.7481 17.084L75.9861 18.708V20.5H74.7261ZM86.0946 20.64C85.4319 20.64 84.8346 20.4907 84.3026 20.192C83.7706 19.884 83.3506 19.4687 83.0426 18.946C82.7346 18.4233 82.5806 17.8307 82.5806 17.168C82.5806 16.5147 82.7299 15.9267 83.0286 15.404C83.3366 14.8813 83.7473 14.4707 84.2606 14.172C84.7833 13.864 85.3666 13.71 86.0106 13.71C86.6266 13.71 87.1679 13.85 87.6346 14.13C88.1106 14.41 88.4793 14.7973 88.7406 15.292C89.0113 15.7867 89.1466 16.3467 89.1466 16.972C89.1466 17.0653 89.1419 17.168 89.1326 17.28C89.1233 17.3827 89.1046 17.504 89.0766 17.644H83.4626V16.594H88.4046L87.9426 17C87.9426 16.552 87.8633 16.174 87.7046 15.866C87.5459 15.5487 87.3219 15.306 87.0326 15.138C86.7433 14.9607 86.3933 14.872 85.9826 14.872C85.5533 14.872 85.1753 14.9653 84.8486 15.152C84.5219 15.3387 84.2699 15.6 84.0926 15.936C83.9153 16.272 83.8266 16.6687 83.8266 17.126C83.8266 17.5927 83.9199 18.0033 84.1066 18.358C84.2933 18.7033 84.5593 18.974 84.9046 19.17C85.2499 19.3567 85.6466 19.45 86.0946 19.45C86.4679 19.45 86.8086 19.3847 87.1166 19.254C87.4339 19.1233 87.7046 18.9273 87.9286 18.666L88.7406 19.492C88.4233 19.8653 88.0313 20.15 87.5646 20.346C87.1073 20.542 86.6173 20.64 86.0946 20.64ZM93.4744 20.64C92.8584 20.64 92.3078 20.4907 91.8224 20.192C91.3371 19.884 90.9498 19.4687 90.6604 18.946C90.3804 18.4233 90.2404 17.8353 90.2404 17.182C90.2404 16.5287 90.3804 15.9407 90.6604 15.418C90.9498 14.8953 91.3371 14.48 91.8224 14.172C92.3078 13.864 92.8584 13.71 93.4744 13.71C93.9691 13.71 94.4171 13.8173 94.8184 14.032C95.2198 14.2373 95.5418 14.5267 95.7844 14.9C96.0364 15.264 96.1764 15.6887 96.2044 16.174V18.176C96.1764 18.652 96.0411 19.0767 95.7984 19.45C95.5558 19.8233 95.2338 20.1173 94.8324 20.332C94.4311 20.5373 93.9784 20.64 93.4744 20.64ZM93.6844 19.45C94.1044 19.45 94.4684 19.352 94.7764 19.156C95.0938 18.96 95.3411 18.694 95.5184 18.358C95.6958 18.0127 95.7844 17.6207 95.7844 17.182C95.7844 16.7247 95.6911 16.328 95.5044 15.992C95.3271 15.656 95.0798 15.39 94.7624 15.194C94.4544 14.998 94.0904 14.9 93.6704 14.9C93.2504 14.9 92.8818 14.998 92.5644 15.194C92.2471 15.39 91.9951 15.6607 91.8084 16.006C91.6311 16.342 91.5424 16.7293 91.5424 17.168C91.5424 17.616 91.6311 18.0127 91.8084 18.358C91.9951 18.694 92.2471 18.96 92.5644 19.156C92.8911 19.352 93.2644 19.45 93.6844 19.45ZM96.9744 20.5H95.7004V18.708L95.9384 17.084L95.7004 15.474V10.504H96.9744V20.5Z" fill="#EAF9F7"/>
</svg>
