<svg width="160" height="70" viewBox="0 0 127 46" fill="#FE4747" xmlns="http://www.w3.org/2000/svg">
<path fill-rule="evenodd" clip-rule="evenodd" d="M88.7397 17.9204C84.0406 10.0206 89.7198 0 98.8961 0C107.694 0 113.411 9.28681 109.464 17.1679L101.858 32.6517C105.671 38.5606 111.536 37.1653 115.464 26.6015L110.035 29.6863C109.182 30.171 108.116 29.597 108.051 28.6182C108.013 28.0498 108.342 27.5204 108.868 27.3018L116.32 24.2041C117.03 24.1566 117.679 24.6048 117.888 25.2864L119.938 32.0276C120.166 32.7761 119.745 33.5678 118.997 33.7978C118.167 34.0533 117.304 33.5095 117.175 32.65L116.32 26.9143C113.069 38.99 105.212 41.6789 100.126 35.6173C97.8667 39.0098 94.0418 41.1027 89.8893 41.1027L72.0231 41.3352L75.248 37.7438L89.8893 38.0296C93.229 38.0296 96.5839 35.9095 98.2173 33.0358L88.7397 17.9204ZM99.8462 30.635L106.724 15.7893C109.647 9.95182 105.413 3.0731 98.8961 3.0731C92.0993 3.0731 87.8927 10.4954 91.3733 16.3467L99.8462 30.635ZM23.2358 38.2808L24.234 40.7822L8.98036 40.1424L15.0805 43.4544C15.894 43.8961 16.0344 45.0057 15.3564 45.6361C14.8594 46.0982 14.0971 46.1211 13.5733 45.6896L7.40916 40.6112C6.86119 40.0192 6.86395 39.103 7.41549 38.5144L13.7623 33.1823C14.293 32.7365 15.0734 32.7585 15.5781 33.2335C16.2485 33.8644 16.116 34.9641 15.3151 35.4179L9.00954 38.99L23.2358 38.2808ZM98.9839 13.6369C100.148 13.6369 101.092 12.691 101.092 11.5241C101.092 10.3573 100.148 9.41138 98.9839 9.41138C97.8196 9.41138 96.8759 10.3573 96.8759 11.5241C96.8759 12.691 97.8196 13.6369 98.9839 13.6369ZM98.9839 16.3259C101.63 16.3259 103.775 14.176 103.775 11.5241C103.775 8.87222 101.63 6.72241 98.9839 6.72241C96.3379 6.72241 94.193 8.87222 94.193 11.5241C94.193 14.176 96.3379 16.3259 98.9839 16.3259ZM25.7591 22.8562V16.4373H23.8341V14.0933H25.7591V13.1557C25.7591 12.4826 25.909 11.8755 26.2088 11.3346C26.5086 10.7937 26.9284 10.367 27.4681 10.0544C28.0198 9.72989 28.6734 9.56761 29.429 9.56761C29.8368 9.56761 30.2086 9.6217 30.5444 9.72989C30.8802 9.83807 31.204 10.0124 31.5158 10.2528L30.1486 12.2722C30.0287 12.1881 29.9087 12.128 29.7888 12.0919C29.6809 12.0558 29.5609 12.0378 29.429 12.0378C29.1292 12.0378 28.9013 12.128 28.7454 12.3083C28.5895 12.4766 28.5115 12.711 28.5115 13.0115V14.0933H34.2323V22.8562H31.4798V16.4373H28.5115V22.8562H25.7591ZM32.8651 13.4622C32.4573 13.4622 32.1155 13.324 31.8396 13.0475C31.5758 12.759 31.4439 12.4104 31.4439 12.0017C31.4439 11.5931 31.5758 11.2505 31.8396 10.974C32.1155 10.6975 32.4573 10.5593 32.8651 10.5593C33.2848 10.5593 33.6266 10.6975 33.8905 10.974C34.1543 11.2505 34.2863 11.5931 34.2863 12.0017C34.2863 12.4104 34.1543 12.759 33.8905 13.0475C33.6266 13.324 33.2848 13.4622 32.8651 13.4622ZM47.2374 22.4415C47.8851 22.8382 48.6227 23.0365 49.4502 23.0365C50.0499 23.0365 50.5956 22.9163 51.0873 22.6759C51.3461 22.5431 51.5799 22.3886 51.7889 22.2124V22.8562H54.4874V9.76596H51.7349V14.6622C51.5352 14.5045 51.3133 14.3689 51.0693 14.2556C50.5896 14.0272 50.0499 13.913 49.4502 13.913C48.6227 13.913 47.8851 14.1113 47.2374 14.508C46.6018 14.9047 46.0981 15.4456 45.7263 16.1308C45.3665 16.8159 45.1866 17.5973 45.1866 18.4748C45.1866 19.3523 45.3665 20.1336 45.7263 20.8187C46.0981 21.5039 46.6018 22.0448 47.2374 22.4415ZM50.9613 20.2959C50.6735 20.4641 50.3317 20.5483 49.9359 20.5483C49.5641 20.5483 49.2283 20.4581 48.9285 20.2778C48.6287 20.0975 48.3948 19.8511 48.2269 19.5386C48.059 19.226 47.975 18.8714 47.975 18.4748C47.975 18.0781 48.059 17.7235 48.2269 17.411C48.4068 17.0984 48.6406 16.852 48.9285 16.6717C49.2283 16.4914 49.5701 16.4012 49.9539 16.4012C50.3377 16.4012 50.6735 16.4914 50.9613 16.6717C51.2612 16.852 51.489 17.0984 51.645 17.411C51.8129 17.7115 51.8968 18.0661 51.8968 18.4748C51.8968 18.8835 51.8129 19.2441 51.645 19.5566C51.4771 19.8691 51.2492 20.1156 50.9613 20.2959ZM59.1316 14.0933V22.8562H61.884V17.7355C61.884 17.435 61.944 17.1825 62.0639 16.9782C62.1958 16.7738 62.3697 16.6176 62.5856 16.5094C62.8015 16.3892 63.0474 16.3291 63.3232 16.3291C63.719 16.3291 64.0488 16.4553 64.3127 16.7077C64.5885 16.9481 64.7264 17.2907 64.7264 17.7355V22.8562H67.4789V17.7355C67.4789 17.435 67.5388 17.1825 67.6588 16.9782C67.7907 16.7738 67.9646 16.6176 68.1805 16.5094C68.3964 16.3892 68.6422 16.3291 68.9181 16.3291C69.3138 16.3291 69.6437 16.4553 69.9075 16.7077C70.1834 16.9481 70.3213 17.2907 70.3213 17.7355V22.8562H73.0737V17.429C73.0737 16.6957 72.9178 16.0706 72.606 15.5538C72.3062 15.0249 71.8924 14.6222 71.3647 14.3457C70.849 14.0572 70.2553 13.913 69.5837 13.913C68.9001 13.913 68.2824 14.0632 67.7307 14.3637C67.3725 14.5552 67.0592 14.8023 66.7908 15.105C66.5407 14.7884 66.2363 14.5293 65.8778 14.3277C65.398 14.0512 64.8524 13.913 64.2407 13.913C63.5931 13.913 63.0114 14.0512 62.4957 14.3277C62.2714 14.4427 62.0675 14.5805 61.884 14.741V14.0933H59.1316ZM79.2991 22.8923L77.7519 26.5525H74.9275L76.9153 22.2541L73.5783 14.0933H76.5466L78.2891 19.415L80.0726 14.0933H83.041L79.2991 22.8923ZM38.018 40.1487C37.0706 40.1487 36.225 39.9563 35.4815 39.5717C34.7499 39.175 34.1742 38.6281 33.7544 37.9309C33.3347 37.2337 33.1248 36.4464 33.1248 35.5689C33.1248 34.6914 33.3287 33.9101 33.7364 33.2249C34.1562 32.5277 34.7199 31.9808 35.4275 31.5841C36.1351 31.1874 36.9327 30.9891 37.8202 30.9891C38.6837 30.9891 39.4452 31.1754 40.1049 31.548C40.7645 31.9207 41.2802 32.4376 41.652 33.0987C42.0358 33.7598 42.2277 34.5171 42.2277 35.3705C42.2277 35.5268 42.2157 35.6951 42.1917 35.8754C42.1797 36.0437 42.1497 36.242 42.1017 36.4704L35.8344 36.4854C35.8745 36.6268 35.9248 36.76 35.9852 36.8851C36.1771 37.2457 36.4409 37.5282 36.7767 37.7326C37.1245 37.9249 37.5323 38.021 38.0001 38.021C38.4318 38.021 38.8216 37.9489 39.1694 37.8047C39.5172 37.6484 39.823 37.42 40.0869 37.1195L41.598 38.6341C41.1663 39.1389 40.6446 39.5176 40.0329 39.77C39.4212 40.0224 38.7496 40.1487 38.018 40.1487ZM35.9672 34.2346C35.9153 34.3461 35.8714 34.4651 35.8355 34.5916L39.6571 34.5808C39.62 34.4136 39.5714 34.2621 39.5112 34.1264C39.3673 33.7899 39.1514 33.5374 38.8636 33.3691C38.5877 33.1888 38.2459 33.0987 37.8381 33.0987C37.4064 33.0987 37.0286 33.2009 36.7048 33.4052C36.393 33.5975 36.1471 33.874 35.9672 34.2346ZM64.2505 39.5717C64.9941 39.9563 65.8396 40.1487 66.7871 40.1487C67.5187 40.1487 68.1903 40.0224 68.802 39.77C69.4136 39.5176 69.9353 39.1389 70.3671 38.6341L68.8559 37.1195C68.5921 37.42 68.2863 37.6484 67.9385 37.8047C67.5907 37.9489 67.2009 38.021 66.7691 38.021C66.3014 38.021 65.8936 37.9249 65.5458 37.7326C65.21 37.5282 64.9461 37.2457 64.7543 36.8851C64.6939 36.76 64.6436 36.6268 64.6035 36.4854L70.8708 36.4704C70.9188 36.242 70.9488 36.0437 70.9608 35.8754C70.9847 35.6951 70.9967 35.5268 70.9967 35.3705C70.9967 34.5171 70.8049 33.7598 70.4211 33.0987C70.0493 32.4376 69.5336 31.9207 68.8739 31.548C68.2143 31.1754 67.4527 30.9891 66.5892 30.9891C65.7017 30.9891 64.9042 31.1874 64.1966 31.5841C63.489 31.9808 62.9253 32.5277 62.5055 33.2249C62.0977 33.9101 61.8939 34.6914 61.8939 35.5689C61.8939 36.4464 62.1037 37.2337 62.5235 37.9309C62.9433 38.6281 63.5189 39.175 64.2505 39.5717ZM64.6046 34.5916C64.6404 34.4651 64.6843 34.3461 64.7363 34.2346C64.9162 33.874 65.162 33.5975 65.4738 33.4052C65.7977 33.2009 66.1755 33.0987 66.6072 33.0987C67.015 33.0987 67.3568 33.1888 67.6326 33.3691C67.9205 33.5374 68.1364 33.7899 68.2803 34.1264C68.3404 34.2621 68.3891 34.4136 68.4262 34.5808L64.6046 34.5916ZM57.0175 40.1487C56.2139 40.1487 55.5003 39.9864 54.8767 39.6619C54.265 39.3253 53.7853 38.8685 53.4375 38.2915C53.0897 37.7025 52.9158 37.0294 52.9158 36.2721V31.1875H55.6682V36.236C55.6682 36.5365 55.7162 36.795 55.8121 37.0113C55.9201 37.2277 56.076 37.396 56.2799 37.5162C56.4838 37.6364 56.7296 37.6965 57.0175 37.6965C57.4252 37.6965 57.7491 37.5703 57.9889 37.3179C58.2288 37.0534 58.3487 36.6928 58.3487 36.236V31.1875H61.1012V36.2541C61.1012 37.0234 60.9273 37.7025 60.5795 38.2915C60.2317 38.8685 59.7519 39.3253 59.1403 39.6619C58.5286 39.9864 57.821 40.1487 57.0175 40.1487ZM48.9712 39.9503V34.9558C48.9712 34.499 48.8273 34.1324 48.5395 33.8559C48.2636 33.5675 47.9098 33.4232 47.4781 33.4232C47.1782 33.4232 46.9144 33.4893 46.6865 33.6215C46.4586 33.7418 46.2787 33.9221 46.1468 34.1625C46.0149 34.3909 45.9489 34.6553 45.9489 34.9558V39.9503H43.1965V31.1874H45.9489V31.8739C46.1368 31.706 46.3467 31.5613 46.5786 31.4398C47.1183 31.1514 47.7239 31.0071 48.3955 31.0071C49.0432 31.0071 49.6129 31.1634 50.1046 31.4759C50.6083 31.7764 51.0041 32.1791 51.2919 32.684C51.5798 33.1888 51.7237 33.7418 51.7237 34.3428V39.9503H48.9712ZM23.6902 31.1875L27.3961 39.9503L29.6089 39.9323L33.3148 31.1875H30.4004L28.5295 36.6121L26.6586 31.1875H23.6902ZM41.5658 22.8562V17.8617C41.5658 17.4049 41.4219 17.0383 41.1341 16.7618C40.8582 16.4733 40.5044 16.3291 40.0727 16.3291C39.7729 16.3291 39.509 16.3952 39.2811 16.5274C39.0533 16.6476 38.8734 16.8279 38.7414 17.0683C38.6095 17.2967 38.5435 17.5612 38.5435 17.8617V22.8562H35.7911V14.0933H38.5435V14.7798C38.7314 14.6119 38.9413 14.4672 39.1732 14.3457C39.7129 14.0572 40.3185 13.913 40.9902 13.913C41.6378 13.913 42.2075 14.0692 42.6992 14.3818C43.2029 14.6823 43.5987 15.085 43.8865 15.5898C44.1744 16.0947 44.3183 16.6476 44.3183 17.2486V22.8562H41.5658Z" fill="background: #FE4747;
"/>
</svg>
