<svg width="28" height="28" viewBox="0 0 28 28" fill="none" xmlns="http://www.w3.org/2000/svg">
<path d="M14 13.6413C12.8771 13.6413 11.9158 13.2415 11.1163 12.4419C10.3165 11.6422 9.91667 10.6809 9.91667 9.55794C9.91667 8.43503 10.3165 7.47379 11.1163 6.67423C11.9158 5.87448 12.8771 5.47461 14 5.47461C15.1229 5.47461 16.0842 5.87448 16.8837 6.67423C17.6835 7.47379 18.0833 8.43503 18.0833 9.55794C18.0833 10.6809 17.6835 11.6422 16.8837 12.4419C16.0842 13.2415 15.1229 13.6413 14 13.6413ZM5.25 22.526V19.9322C5.25 19.361 5.40517 18.8319 5.7155 18.345C6.02583 17.8581 6.44058 17.4838 6.95975 17.2221C8.11281 16.6568 9.27607 16.2328 10.4495 15.9501C11.623 15.6674 12.8065 15.526 14 15.526C15.1935 15.526 16.377 15.6674 17.5505 15.9501C18.7239 16.2328 19.8872 16.6568 21.0402 17.2221C21.5594 17.4838 21.9742 17.8581 22.2845 18.345C22.5948 18.8319 22.75 19.361 22.75 19.9322V22.526H5.25ZM7 20.776H21V19.9322C21 19.696 20.9316 19.4772 20.7947 19.276C20.6578 19.0749 20.472 18.9108 20.2373 18.7837C19.232 18.2886 18.2071 17.9135 17.1625 17.6584C16.1178 17.4035 15.0636 17.276 14 17.276C12.9364 17.276 11.8822 17.4035 10.8375 17.6584C9.7929 17.9135 8.76799 18.2886 7.76271 18.7837C7.52801 18.9108 7.34222 19.0749 7.20533 19.276C7.06844 19.4772 7 19.696 7 19.9322V20.776ZM14 11.8913C14.6417 11.8913 15.191 11.6628 15.6479 11.2059C16.1049 10.7489 16.3333 10.1996 16.3333 9.55794C16.3333 8.91628 16.1049 8.36697 15.6479 7.91003C15.191 7.45308 14.6417 7.22461 14 7.22461C13.3583 7.22461 12.809 7.45308 12.3521 7.91003C11.8951 8.36697 11.6667 8.91628 11.6667 9.55794C11.6667 10.1996 11.8951 10.7489 12.3521 11.2059C12.809 11.6628 13.3583 11.8913 14 11.8913Z" fill="#4990FB"/>
</svg>
