<svg width="20" height="20" viewBox="0 0 20 20" fill="none" xmlns="http://www.w3.org/2000/svg">
<path d="M1.49805 14.237C1.49805 13.8075 1.60889 13.4243 1.83059 13.0872C2.05227 12.7501 2.34832 12.4879 2.71876 12.3005C3.51071 11.9131 4.30706 11.6145 5.1078 11.4045C5.90855 11.1946 6.78862 11.0896 7.74803 11.0896C8.70743 11.0896 9.5875 11.1946 10.3882 11.4045C11.189 11.6145 11.9853 11.9131 12.7773 12.3005C13.1477 12.4879 13.4438 12.7501 13.6655 13.0872C13.8871 13.4243 13.998 13.8075 13.998 14.237V14.8236C13.998 15.159 13.8749 15.4539 13.6286 15.7082C13.3824 15.9624 13.0835 16.0896 12.732 16.0896H2.76405C2.41256 16.0896 2.11369 15.9664 1.86744 15.7202C1.62119 15.4739 1.49807 15.1751 1.49807 14.8236L1.49805 14.237ZM17.2352 16.0896H15.3425C15.4473 15.8983 15.5271 15.6948 15.5821 15.479C15.6371 15.2631 15.6647 15.0447 15.6647 14.8236V14.1345C15.6647 13.5875 15.5307 13.0662 15.2629 12.5705C14.995 12.0749 14.615 11.6496 14.123 11.2948C14.6818 11.3781 15.2122 11.5071 15.7143 11.6818C16.2165 11.8565 16.6956 12.0629 17.1518 12.3012C17.5824 12.5309 17.9149 12.8016 18.1494 13.1133C18.3839 13.4251 18.5012 13.7655 18.5012 14.1345V14.8236C18.5012 15.1751 18.378 15.4739 18.1318 15.7202C17.8855 15.9664 17.5867 16.0896 17.2352 16.0896ZM7.74803 9.74343C6.94596 9.74343 6.25933 9.45784 5.68815 8.88668C5.11697 8.3155 4.83138 7.62887 4.83138 6.8268C4.83138 6.02472 5.11697 5.33809 5.68815 4.76693C6.25933 4.19575 6.94596 3.91016 7.74803 3.91016C8.5501 3.91016 9.23672 4.19575 9.8079 4.76693C10.3791 5.33809 10.6647 6.02472 10.6647 6.8268C10.6647 7.62887 10.3791 8.3155 9.8079 8.88668C9.23672 9.45784 8.5501 9.74343 7.74803 9.74343ZM14.9435 6.8268C14.9435 7.62887 14.6579 8.3155 14.0867 8.88668C13.5155 9.45784 12.8289 9.74343 12.0268 9.74343C11.9328 9.74343 11.8132 9.73275 11.6679 9.71139C11.5226 9.69002 11.4029 9.66652 11.3089 9.64089C11.6375 9.24579 11.8901 8.80748 12.0666 8.32595C12.2431 7.84442 12.3313 7.34437 12.3313 6.8258C12.3313 6.30725 12.2413 5.80918 12.0613 5.33162C11.8813 4.85406 11.6305 4.41443 11.3089 4.01272C11.4286 3.96998 11.5482 3.94221 11.6679 3.92939C11.7875 3.91657 11.9072 3.91016 12.0268 3.91016C12.8289 3.91016 13.5155 4.19575 14.0867 4.76693C14.6579 5.33809 14.9435 6.02472 14.9435 6.8268ZM2.74803 14.8396H12.748V14.237C12.748 14.0629 12.7045 13.908 12.6174 13.7723C12.5303 13.6366 12.3922 13.518 12.2032 13.4165C11.5172 13.0629 10.8111 12.795 10.0846 12.6128C9.35807 12.4307 8.57922 12.3396 7.74803 12.3396C6.91683 12.3396 6.13798 12.4307 5.41148 12.6128C4.685 12.795 3.9788 13.0629 3.2929 13.4165C3.1038 13.518 2.96571 13.6366 2.87863 13.7723C2.79156 13.908 2.74803 14.0629 2.74803 14.237V14.8396ZM7.74803 8.49347C8.20636 8.49347 8.59872 8.33027 8.92511 8.00389C9.2515 7.6775 9.41469 7.28514 9.41469 6.8268C9.41469 6.36847 9.2515 5.97611 8.92511 5.64972C8.59872 5.32333 8.20636 5.16014 7.74803 5.16014C7.28969 5.16014 6.89733 5.32333 6.57094 5.64972C6.24455 5.97611 6.08136 6.36847 6.08136 6.8268C6.08136 7.28514 6.24455 7.6775 6.57094 8.00389C6.89733 8.33027 7.28969 8.49347 7.74803 8.49347Z" fill="#B0B0B0"/>
</svg>
