<svg width="208" height="73" viewBox="0 0 208 73" fill="none" xmlns="http://www.w3.org/2000/svg">
<rect y="0.262695" width="72" height="72" rx="8" fill="#FFF5F5"/>
<path d="M16 52.7415V32.0279L28.4888 19.7627L40.9781 32.0279V52.7415H16ZM19.4056 49.3965H26.4803V43.4785H30.4979V49.3965H37.572V33.396L28.4888 24.4759L19.4056 33.396V49.3965ZM26.4803 37.9887V34.0438H30.4979V37.9887H26.4803ZM45.0832 52.7627V30.3598L34.2924 19.7627H39.1138L48.4894 28.9705V52.7627H45.0832ZM52.5944 52.7627V27.3019L44.9174 19.7627H49.7599L56 25.9126V52.7627H52.5944Z" fill="#FE4747"/>
<g opacity="0.5">
<mask id="path-3-outside-1_96_25787" maskUnits="userSpaceOnUse" x="155" y="19.7627" width="53" height="32" fill="black">
<rect fill="white" x="155" y="19.7627" width="53" height="32"/>
<path d="M168.941 50.2027C166.675 50.2027 164.621 49.5894 162.781 48.3627C160.941 47.136 159.488 45.4294 158.421 43.2427C157.381 41.0294 156.861 38.4827 156.861 35.6027C156.861 32.696 157.381 30.1627 158.421 28.0027C159.461 25.816 160.888 24.1227 162.701 22.9227C164.515 21.696 166.568 21.0827 168.861 21.0827C171.181 21.0827 173.248 21.696 175.061 22.9227C176.875 24.1227 178.301 25.816 179.341 28.0027C180.408 30.1894 180.941 32.736 180.941 35.6427C180.941 38.5494 180.408 41.096 179.341 43.2827C178.301 45.4694 176.875 47.176 175.061 48.4027C173.275 49.6027 171.235 50.2027 168.941 50.2027ZM168.901 44.6427C170.075 44.6427 171.088 44.3094 171.941 43.6427C172.795 42.9494 173.448 41.936 173.901 40.6027C174.381 39.2427 174.621 37.5894 174.621 35.6427C174.621 33.6694 174.381 32.016 173.901 30.6827C173.448 29.3494 172.795 28.3494 171.941 27.6827C171.088 26.9894 170.061 26.6427 168.861 26.6427C167.715 26.6427 166.701 26.976 165.821 27.6427C164.968 28.3094 164.315 29.3094 163.861 30.6427C163.408 31.976 163.181 33.6294 163.181 35.6027C163.181 37.576 163.408 39.2294 163.861 40.5627C164.315 41.896 164.968 42.9094 165.821 43.6027C166.701 44.296 167.728 44.6427 168.901 44.6427ZM186.382 46.2427L197.222 35.0427C197.889 34.376 198.422 33.7627 198.822 33.2027C199.222 32.6427 199.515 32.1227 199.702 31.6427C199.889 31.136 199.982 30.6294 199.982 30.1227C199.982 29.0294 199.622 28.176 198.902 27.5627C198.209 26.9227 197.289 26.6027 196.142 26.6027C195.022 26.6027 194.009 26.9094 193.102 27.5227C192.222 28.1094 191.369 29.0827 190.542 30.4427L186.342 26.8027C187.462 24.9094 188.889 23.4827 190.622 22.5227C192.355 21.5627 194.342 21.0827 196.582 21.0827C198.529 21.0827 200.209 21.4427 201.622 22.1627C203.062 22.8827 204.169 23.9094 204.942 25.2427C205.742 26.576 206.142 28.136 206.142 29.9227C206.142 31.0427 205.995 32.0827 205.702 33.0427C205.409 33.976 204.929 34.9094 204.262 35.8427C203.622 36.7494 202.755 37.7494 201.662 38.8427L194.142 46.3227L186.382 46.2427ZM186.382 49.7627V46.2427L191.702 44.4027H206.702V49.7627H186.382Z"/>
</mask>
<path d="M162.781 48.3627L162.227 49.1947L162.781 48.3627ZM158.421 43.2427L157.516 43.668L157.519 43.6746L157.522 43.6811L158.421 43.2427ZM158.421 28.0027L159.322 28.4365L159.324 28.4322L158.421 28.0027ZM162.701 22.9227L163.253 23.7567L163.262 23.751L162.701 22.9227ZM175.061 22.9227L174.501 23.751L174.509 23.7566L175.061 22.9227ZM179.341 28.0027L178.438 28.4322L178.442 28.4411L179.341 28.0027ZM179.341 43.2827L178.442 42.8442L178.438 42.8532L179.341 43.2827ZM175.061 48.4027L175.619 49.2328L175.622 49.231L175.061 48.4027ZM171.941 43.6427L172.557 44.4307L172.564 44.4248L172.572 44.4188L171.941 43.6427ZM173.901 40.6027L172.958 40.2699L172.954 40.2808L173.901 40.6027ZM173.901 30.6827L172.954 31.0046L172.957 31.013L172.96 31.0214L173.901 30.6827ZM171.941 27.6827L171.311 28.4588L171.318 28.4648L171.326 28.4707L171.941 27.6827ZM165.821 27.6427L165.217 26.8456L165.211 26.8501L165.206 26.8547L165.821 27.6427ZM163.861 30.6427L164.808 30.9646L163.861 30.6427ZM163.861 40.5627L164.808 40.2408L163.861 40.5627ZM165.821 43.6027L165.191 44.3788L165.196 44.3835L165.202 44.3882L165.821 43.6027ZM168.941 49.2027C166.867 49.2027 165.007 48.6449 163.336 47.5306L162.227 49.1947C164.235 50.5338 166.482 51.2027 168.941 51.2027V49.2027ZM163.336 47.5306C161.658 46.412 160.317 44.848 159.32 42.8043L157.522 43.6811C158.659 46.0108 160.224 47.86 162.227 49.1947L163.336 47.5306ZM159.326 42.8174C158.359 40.7587 157.861 38.3616 157.861 35.6027H155.861C155.861 38.6038 156.404 41.3 157.516 43.668L159.326 42.8174ZM157.861 35.6027C157.861 32.8148 158.36 30.4355 159.322 28.4365L157.52 27.5689C156.403 29.8899 155.861 32.5772 155.861 35.6027H157.861ZM159.324 28.4322C160.295 26.3906 161.608 24.8452 163.253 23.7566L162.149 22.0888C160.168 23.4002 158.627 25.2415 157.518 27.5732L159.324 28.4322ZM163.262 23.751C164.901 22.6417 166.758 22.0827 168.861 22.0827V20.0827C166.378 20.0827 164.128 20.7503 162.141 22.0944L163.262 23.751ZM168.861 22.0827C170.994 22.0827 172.863 22.6431 174.501 23.751L175.622 22.0944C173.633 20.749 171.368 20.0827 168.861 20.0827V22.0827ZM174.509 23.7566C176.154 24.8452 177.467 26.3906 178.438 28.4322L180.244 27.5732C179.135 25.2415 177.595 23.4002 175.613 22.0888L174.509 23.7566ZM178.442 28.4411C179.431 30.4672 179.941 32.8587 179.941 35.6427H181.941C181.941 32.6134 181.385 29.9116 180.24 27.5643L178.442 28.4411ZM179.941 35.6427C179.941 38.4267 179.431 40.8182 178.442 42.8443L180.24 43.7211C181.385 41.3738 181.941 38.672 181.941 35.6427H179.941ZM178.438 42.8532C177.466 44.8963 176.151 46.4581 174.501 47.5744L175.622 49.231C177.598 47.894 179.136 46.0424 180.244 43.7122L178.438 42.8532ZM174.504 47.5726C172.893 48.6544 171.05 49.2027 168.941 49.2027V51.2027C171.419 51.2027 173.656 50.551 175.619 49.2328L174.504 47.5726ZM168.901 45.6427C170.278 45.6427 171.513 45.2465 172.557 44.4307L171.326 42.8547C170.663 43.3722 169.871 43.6427 168.901 43.6427V45.6427ZM172.572 44.4188C173.607 43.5777 174.351 42.3867 174.848 40.9246L172.954 40.2808C172.545 41.4854 171.982 42.321 171.311 42.8666L172.572 44.4188ZM174.844 40.9355C175.373 39.4385 175.621 37.6657 175.621 35.6427H173.621C173.621 37.513 173.39 39.0469 172.958 40.2699L174.844 40.9355ZM175.621 35.6427C175.621 33.5958 175.373 31.8194 174.842 30.344L172.96 31.0214C173.389 32.2126 173.621 33.7429 173.621 35.6427H175.621ZM174.848 30.3608C174.351 28.8978 173.604 27.7124 172.557 26.8947L171.326 28.4707C171.986 28.9864 172.545 29.8009 172.954 31.0046L174.848 30.3608ZM172.572 26.9066C171.524 26.0549 170.268 25.6427 168.861 25.6427V27.6427C169.854 27.6427 170.652 27.9238 171.311 28.4588L172.572 26.9066ZM168.861 25.6427C167.506 25.6427 166.278 26.0419 165.217 26.8456L166.425 28.4398C167.124 27.9101 167.924 27.6427 168.861 27.6427V25.6427ZM165.206 26.8547C164.159 27.6724 163.412 28.8578 162.914 30.3208L164.808 30.9646C165.217 29.7609 165.777 28.9464 166.437 28.4307L165.206 26.8547ZM162.914 30.3208C162.415 31.7902 162.181 33.5603 162.181 35.6027H164.181C164.181 33.6984 164.401 32.1619 164.808 30.9646L162.914 30.3208ZM162.181 35.6027C162.181 37.6451 162.415 39.4152 162.914 40.8846L164.808 40.2408C164.401 39.0435 164.181 37.507 164.181 35.6027H162.181ZM162.914 40.8846C163.412 42.3466 164.155 43.5377 165.191 44.3788L166.452 42.8266C165.78 42.281 165.218 41.4454 164.808 40.2408L162.914 40.8846ZM165.202 44.3882C166.268 45.2274 167.515 45.6427 168.901 45.6427V43.6427C167.941 43.6427 167.135 43.3647 166.44 42.8172L165.202 44.3882ZM186.382 46.2427L185.663 45.5472L184.046 47.2187L186.372 47.2426L186.382 46.2427ZM197.222 35.0427L196.515 34.3356L196.509 34.3414L196.503 34.3472L197.222 35.0427ZM198.822 33.2027L198.008 32.6215V32.6215L198.822 33.2027ZM199.702 31.6427L200.634 32.0051L200.637 31.9968L200.64 31.9884L199.702 31.6427ZM198.902 27.5627L198.224 28.2975L198.238 28.311L198.253 28.3239L198.902 27.5627ZM193.102 27.5227L193.657 28.3548L193.662 28.351L193.102 27.5227ZM190.542 30.4427L189.887 31.1984L190.782 31.9737L191.396 30.9621L190.542 30.4427ZM186.342 26.8027L185.481 26.2936L185.056 27.0118L185.687 27.5584L186.342 26.8027ZM190.622 22.5227L190.137 21.6479V21.6479L190.622 22.5227ZM201.622 22.1627L201.168 23.0538L201.175 23.0571L201.622 22.1627ZM204.942 25.2427L204.077 25.7444L204.081 25.7508L204.084 25.7572L204.942 25.2427ZM205.702 33.0427L206.656 33.3425L206.658 33.3349L205.702 33.0427ZM204.262 35.8427L203.448 35.2614L203.445 35.266L204.262 35.8427ZM201.662 38.8427L202.367 39.5517L202.369 39.5498L201.662 38.8427ZM194.142 46.3227L194.132 47.3226L194.55 47.327L194.847 47.0317L194.142 46.3227ZM186.382 49.7627H185.382V50.7627H186.382V49.7627ZM186.382 46.2427L186.055 45.2976L185.382 45.5304V46.2427H186.382ZM191.702 44.4027V43.4027H191.534L191.375 43.4576L191.702 44.4027ZM206.702 44.4027H207.702V43.4027H206.702V44.4027ZM206.702 49.7627V50.7627H207.702V49.7627H206.702ZM187.1 46.9382L197.94 35.7382L196.503 34.3472L185.663 45.5472L187.1 46.9382ZM197.929 35.7498C198.621 35.0574 199.194 34.4017 199.636 33.7839L198.008 32.6215C197.649 33.1237 197.156 33.6947 196.515 34.3356L197.929 35.7498ZM199.636 33.7839C200.069 33.1773 200.409 32.5837 200.634 32.0051L198.77 31.2802C198.622 31.6617 198.375 32.108 198.008 32.6215L199.636 33.7839ZM200.64 31.9884C200.865 31.3784 200.982 30.7549 200.982 30.1227H198.982C198.982 30.5038 198.912 30.8937 198.764 31.297L200.64 31.9884ZM200.982 30.1227C200.982 28.7872 200.529 27.6354 199.55 26.8015L198.253 28.3239C198.714 28.7166 198.982 29.2715 198.982 30.1227H200.982ZM199.58 26.8279C198.664 25.9823 197.483 25.6027 196.142 25.6027V27.6027C197.094 27.6027 197.753 27.8631 198.224 28.2975L199.58 26.8279ZM196.142 25.6027C194.827 25.6027 193.618 25.9664 192.542 26.6944L193.662 28.351C194.399 27.8523 195.217 27.6027 196.142 27.6027V25.6027ZM192.547 26.6906C191.5 27.3888 190.555 28.4958 189.687 29.9233L191.396 30.9621C192.182 29.6696 192.944 28.8299 193.657 28.3547L192.547 26.6906ZM191.197 29.687L186.997 26.047L185.687 27.5584L189.887 31.1984L191.197 29.687ZM187.203 27.3118C188.242 25.5544 189.545 24.262 191.106 23.3975L190.137 21.6479C188.232 22.7034 186.682 24.2644 185.481 26.2936L187.203 27.3118ZM191.106 23.3975C192.673 22.5298 194.489 22.0827 196.582 22.0827V20.0827C194.195 20.0827 192.037 20.5955 190.137 21.6479L191.106 23.3975ZM196.582 22.0827C198.406 22.0827 199.924 22.4198 201.168 23.0537L202.076 21.2717C200.493 20.4656 198.651 20.0827 196.582 20.0827V22.0827ZM201.175 23.0571C202.448 23.6939 203.406 24.5877 204.077 25.7444L205.807 24.741C204.931 23.231 203.676 22.0715 202.069 21.2683L201.175 23.0571ZM204.084 25.7572C204.778 26.9131 205.142 28.2898 205.142 29.9227H207.142C207.142 27.9823 206.706 26.2389 205.799 24.7282L204.084 25.7572ZM205.142 29.9227C205.142 30.955 205.007 31.8954 204.746 32.7505L206.658 33.3349C206.984 32.27 207.142 31.1304 207.142 29.9227H205.142ZM204.748 32.7429C204.491 33.56 204.064 34.3995 203.448 35.2615L205.076 36.4239C205.793 35.4192 206.326 34.3921 206.656 33.3425L204.748 32.7429ZM203.445 35.266C202.848 36.112 202.022 37.0681 200.955 38.1356L202.369 39.5498C203.488 38.4306 204.396 37.3867 205.079 36.4194L203.445 35.266ZM200.957 38.1337L193.437 45.6137L194.847 47.0317L202.367 39.5517L200.957 38.1337ZM194.152 45.3227L186.392 45.2427L186.372 47.2426L194.132 47.3226L194.152 45.3227ZM187.382 49.7627V46.2427H185.382V49.7627H187.382ZM186.709 47.1878L192.029 45.3478L191.375 43.4576L186.055 45.2976L186.709 47.1878ZM191.702 45.4027H206.702V43.4027H191.702V45.4027ZM205.702 44.4027V49.7627H207.702V44.4027H205.702ZM206.702 48.7627H186.382V50.7627H206.702V48.7627Z" fill="#717171" mask="url(#path-3-outside-1_96_25787)"/>
</g>
</svg>
